*
%FSLAX35Y35*%
%MOMM*%
%ADD10C,0.400000*%
%ADD11C,1.152000*%
%ADD12C,1.452000*%
%ADD13C,1.650000*%
%ADD14C,0.850000*%
%ADD15C,1.050000*%
%ADD16C,2.550000*%
%ADD17C,0.500000*%
%IPPOS*%
%LN2697ay02f009566a0.drl*%
%LPD*%
G75*
G54D10*
X00105994Y00526999D03*
X00243992D03*
X00249986Y00221995D03*
X00389001Y00245998D03*
X00408000Y00391007D03*
X00487984Y00513994D03*
X00489991Y00248996D03*
X00492988Y00397002D03*
X00589000Y00062991D03*
X00594004Y00153009D03*
X00597001Y00245008D03*
X01505000Y00486003D03*
X01545005Y00437006D03*
X01586992Y00256006D03*
X01591005Y00354990D03*
X01629994Y00659003D03*
X01678990Y00257987D03*
X01756994Y00678002D03*
X01840001Y00472008D03*
X01845005Y01078991D03*
X01557985Y00867003D03*
X01483994Y01153998D03*
X01468983Y00848994D03*
X01410995Y01070991D03*
X01354988Y01021994D03*
X01303985Y00964996D03*
X01251000Y00916000D03*
X01205001Y00865987D03*
X00999997Y01118006D03*
Y01049985D03*
X00997991Y00988999D03*
X01216990Y01461998D03*
X01218006Y01537004D03*
X01530985Y01603984D03*
X01583004Y01551000D03*
G54D11*
X02261946Y00145491D02*
X02181936D01*
X02261946Y01684477D02*
X02181936D01*
G54D12*
X00163906Y01079957D02*
X00254076D01*
X00163906Y00759917D02*
X00254076D01*
G54D13*
X00154000Y00359003D03*
Y01408988D03*
X01399006Y01549120D03*
X01678990Y00469493D03*
G54D14*
X02166836Y00145491D03*
X02277046D03*
X02166836Y01684477D03*
X02277046D03*
G54D15*
X00274176Y01079957D03*
X00143806D03*
X00274176Y00759917D03*
X00143806D03*
G54D10*
X00105994Y02606999D03*
X00243992D03*
X00249986Y02301995D03*
X00389001Y02325999D03*
X00408000Y02471007D03*
X00487984Y02593994D03*
X00489991Y02328996D03*
X00492988Y02477002D03*
X00589000Y02142991D03*
X00594004Y02233009D03*
X00597001Y02325008D03*
X01505000Y02566003D03*
X01545005Y02517006D03*
X01586992Y02336006D03*
X01591005Y02434990D03*
X01629994Y02739003D03*
X01678990Y02337987D03*
X01756994Y02758002D03*
X01840001Y02552008D03*
X01845005Y03158992D03*
X01557985Y02947003D03*
X01483994Y03233998D03*
X01468983Y02928995D03*
X01410995Y03150991D03*
X01354988Y03101994D03*
X01303985Y03044996D03*
X01251000Y02996000D03*
X01205001Y02945987D03*
X00999997Y03198006D03*
Y03129985D03*
X00997991Y03068999D03*
X01216990Y03541998D03*
X01218006Y03617004D03*
X01530985Y03683984D03*
X01583004Y03631000D03*
G54D11*
X02261946Y02225491D02*
X02181936D01*
X02261946Y03764477D02*
X02181936D01*
G54D12*
X00163906Y03159957D02*
X00254076D01*
X00163906Y02839917D02*
X00254076D01*
G54D13*
X00154000Y02439003D03*
Y03488988D03*
X01399006Y03629120D03*
X01678990Y02549493D03*
G54D14*
X02166836Y02225491D03*
X02277046D03*
X02166836Y03764477D03*
X02277046D03*
G54D15*
X00274176Y03159957D03*
X00143806D03*
X00274176Y02839917D03*
X00143806D03*
G54D10*
X00105994Y04686999D03*
X00243992D03*
X00249986Y04381996D03*
X00389001Y04405999D03*
X00408000Y04551007D03*
X00487984Y04673994D03*
X00489991Y04408996D03*
X00492988Y04557002D03*
X00589000Y04222992D03*
X00594004Y04313009D03*
X00597001Y04405008D03*
X01505000Y04646003D03*
X01545005Y04597007D03*
X01586992Y04416006D03*
X01591005Y04514990D03*
X01629994Y04819003D03*
X01678990Y04417987D03*
X01756994Y04838002D03*
X01840001Y04632008D03*
X01845005Y05238991D03*
X01557985Y05027003D03*
X01483994Y05313998D03*
X01468983Y05008995D03*
X01410995Y05230991D03*
X01354988Y05181994D03*
X01303985Y05124996D03*
X01251000Y05076000D03*
X01205001Y05025987D03*
X00999997Y05278006D03*
Y05209985D03*
X00997991Y05148999D03*
X01216990Y05621998D03*
X01218006Y05697004D03*
X01530985Y05763984D03*
X01583004Y05711000D03*
G54D11*
X02261946Y04305491D02*
X02181936D01*
X02261946Y05844477D02*
X02181936D01*
G54D12*
X00163906Y05239957D02*
X00254076D01*
X00163906Y04919917D02*
X00254076D01*
G54D13*
X00154000Y04519003D03*
Y05568988D03*
X01399006Y05709120D03*
X01678990Y04629493D03*
G54D14*
X02166836Y04305491D03*
X02277046D03*
X02166836Y05844477D03*
X02277046D03*
G54D15*
X00274176Y05239957D03*
X00143806D03*
X00274176Y04919917D03*
X00143806D03*
G54D10*
X00105994Y06766999D03*
X00243992D03*
X00249986Y06461996D03*
X00389001Y06485998D03*
X00408000Y06631007D03*
X00487984Y06753994D03*
X00489991Y06488996D03*
X00492988Y06637001D03*
X00589000Y06302992D03*
X00594004Y06393009D03*
X00597001Y06485008D03*
X01505000Y06726003D03*
X01545005Y06677007D03*
X01586992Y06496006D03*
X01591005Y06594990D03*
X01629994Y06899003D03*
X01678990Y06497987D03*
X01756994Y06918002D03*
X01840001Y06712008D03*
X01845005Y07318992D03*
X01557985Y07107003D03*
X01483994Y07393998D03*
X01468983Y07088995D03*
X01410995Y07310991D03*
X01354988Y07261994D03*
X01303985Y07204996D03*
X01251000Y07156000D03*
X01205001Y07105987D03*
X00999997Y07358006D03*
Y07289985D03*
X00997991Y07228999D03*
X01216990Y07701998D03*
X01218006Y07777004D03*
X01530985Y07843984D03*
X01583004Y07791000D03*
G54D11*
X02261946Y06385491D02*
X02181936D01*
X02261946Y07924477D02*
X02181936D01*
G54D12*
X00163906Y07319957D02*
X00254076D01*
X00163906Y06999917D02*
X00254076D01*
G54D13*
X00154000Y06599003D03*
Y07648988D03*
X01399006Y07789120D03*
X01678990Y06709493D03*
G54D14*
X02166836Y06385491D03*
X02277046D03*
X02166836Y07924477D03*
X02277046D03*
G54D15*
X00274176Y07319957D03*
X00143806D03*
X00274176Y06999917D03*
X00143806D03*
G54D10*
X00105994Y08846999D03*
X00243992D03*
X00249986Y08541996D03*
X00389001Y08565999D03*
X00408000Y08711007D03*
X00487984Y08833994D03*
X00489991Y08568996D03*
X00492988Y08717002D03*
X00589000Y08382991D03*
X00594004Y08473009D03*
X00597001Y08565008D03*
X01505000Y08806003D03*
X01545005Y08757007D03*
X01586992Y08576006D03*
X01591005Y08674990D03*
X01629994Y08979003D03*
X01678990Y08577987D03*
X01756994Y08998002D03*
X01840001Y08792008D03*
X01845005Y09398992D03*
X01557985Y09187003D03*
X01483994Y09473998D03*
X01468983Y09168995D03*
X01410995Y09390991D03*
X01354988Y09341994D03*
X01303985Y09284996D03*
X01251000Y09236000D03*
X01205001Y09185987D03*
X00999997Y09438006D03*
Y09369985D03*
X00997991Y09308999D03*
X01216990Y09781998D03*
X01218006Y09857004D03*
X01530985Y09923984D03*
X01583004Y09871000D03*
G54D11*
X02261946Y08465491D02*
X02181936D01*
X02261946Y10004477D02*
X02181936D01*
G54D12*
X00163906Y09399957D02*
X00254076D01*
X00163906Y09079917D02*
X00254076D01*
G54D13*
X00154000Y08679003D03*
Y09728988D03*
X01399006Y09869120D03*
X01678990Y08789493D03*
G54D14*
X02166836Y08465491D03*
X02277046D03*
X02166836Y10004477D03*
X02277046D03*
G54D15*
X00274176Y09399957D03*
X00143806D03*
X00274176Y09079917D03*
X00143806D03*
G54D10*
X00105994Y10926999D03*
X00243992D03*
X00249986Y10621996D03*
X00389001Y10645998D03*
X00408000Y10791007D03*
X00487984Y10913994D03*
X00489991Y10648996D03*
X00492988Y10797001D03*
X00589000Y10462991D03*
X00594004Y10553009D03*
X00597001Y10645008D03*
X01505000Y10886003D03*
X01545005Y10837007D03*
X01586992Y10656006D03*
X01591005Y10754990D03*
X01629994Y11059003D03*
X01678990Y10657987D03*
X01756994Y11078002D03*
X01840001Y10872008D03*
X01845005Y11478992D03*
X01557985Y11267003D03*
X01483994Y11553998D03*
X01468983Y11248995D03*
X01410995Y11470991D03*
X01354988Y11421994D03*
X01303985Y11364996D03*
X01251000Y11316000D03*
X01205001Y11265987D03*
X00999997Y11518006D03*
Y11449985D03*
X00997991Y11388999D03*
X01216990Y11861998D03*
X01218006Y11937004D03*
X01530985Y12003984D03*
X01583004Y11951000D03*
G54D11*
X02261946Y10545491D02*
X02181936D01*
X02261946Y12084477D02*
X02181936D01*
G54D12*
X00163906Y11479957D02*
X00254076D01*
X00163906Y11159917D02*
X00254076D01*
G54D13*
X00154000Y10759003D03*
Y11808988D03*
X01399006Y11949120D03*
X01678990Y10869493D03*
G54D14*
X02166836Y10545491D03*
X02277046D03*
X02166836Y12084477D03*
X02277046D03*
G54D15*
X00274176Y11479957D03*
X00143806D03*
X00274176Y11159917D03*
X00143806D03*
G54D10*
X02890994Y00526999D03*
X03028992D03*
X03034986Y00221995D03*
X03174001Y00245998D03*
X03193000Y00391007D03*
X03272984Y00513994D03*
X03274991Y00248996D03*
X03277988Y00397002D03*
X03374000Y00062991D03*
X03379004Y00153009D03*
X03382001Y00245008D03*
X04290000Y00486003D03*
X04330005Y00437006D03*
X04371992Y00256006D03*
X04376005Y00354990D03*
X04414994Y00659003D03*
X04463990Y00257987D03*
X04541994Y00678002D03*
X04625001Y00472008D03*
X04630005Y01078991D03*
X04342985Y00867003D03*
X04268994Y01153998D03*
X04253983Y00848994D03*
X04195995Y01070991D03*
X04139988Y01021994D03*
X04088985Y00964996D03*
X04036000Y00916000D03*
X03990001Y00865987D03*
X03784997Y01118006D03*
Y01049985D03*
X03782991Y00988999D03*
X04001990Y01461998D03*
X04003006Y01537004D03*
X04315985Y01603984D03*
X04368004Y01551000D03*
G54D11*
X05046946Y00145491D02*
X04966936D01*
X05046946Y01684477D02*
X04966936D01*
G54D12*
X02948906Y01079957D02*
X03039076D01*
X02948906Y00759917D02*
X03039076D01*
G54D13*
X02939000Y00359003D03*
Y01408988D03*
X04184006Y01549120D03*
X04463990Y00469493D03*
G54D14*
X04951836Y00145491D03*
X05062046D03*
X04951836Y01684477D03*
X05062046D03*
G54D15*
X03059176Y01079957D03*
X02928806D03*
X03059176Y00759917D03*
X02928806D03*
G54D10*
X02890994Y02606999D03*
X03028992D03*
X03034986Y02301995D03*
X03174001Y02325999D03*
X03193000Y02471007D03*
X03272984Y02593994D03*
X03274991Y02328996D03*
X03277988Y02477002D03*
X03374000Y02142991D03*
X03379004Y02233009D03*
X03382001Y02325008D03*
X04290000Y02566003D03*
X04330005Y02517006D03*
X04371992Y02336006D03*
X04376005Y02434990D03*
X04414994Y02739003D03*
X04463990Y02337987D03*
X04541994Y02758002D03*
X04625001Y02552008D03*
X04630005Y03158992D03*
X04342985Y02947003D03*
X04268994Y03233998D03*
X04253983Y02928995D03*
X04195995Y03150991D03*
X04139988Y03101994D03*
X04088985Y03044996D03*
X04036000Y02996000D03*
X03990001Y02945987D03*
X03784997Y03198006D03*
Y03129985D03*
X03782991Y03068999D03*
X04001990Y03541998D03*
X04003006Y03617004D03*
X04315985Y03683984D03*
X04368004Y03631000D03*
G54D11*
X05046946Y02225491D02*
X04966936D01*
X05046946Y03764477D02*
X04966936D01*
G54D12*
X02948906Y03159957D02*
X03039076D01*
X02948906Y02839917D02*
X03039076D01*
G54D13*
X02939000Y02439003D03*
Y03488988D03*
X04184006Y03629120D03*
X04463990Y02549493D03*
G54D14*
X04951836Y02225491D03*
X05062046D03*
X04951836Y03764477D03*
X05062046D03*
G54D15*
X03059176Y03159957D03*
X02928806D03*
X03059176Y02839917D03*
X02928806D03*
G54D10*
X02890994Y04686999D03*
X03028992D03*
X03034986Y04381996D03*
X03174001Y04405999D03*
X03193000Y04551007D03*
X03272984Y04673994D03*
X03274991Y04408996D03*
X03277988Y04557002D03*
X03374000Y04222992D03*
X03379004Y04313009D03*
X03382001Y04405008D03*
X04290000Y04646003D03*
X04330005Y04597007D03*
X04371992Y04416006D03*
X04376005Y04514990D03*
X04414994Y04819003D03*
X04463990Y04417987D03*
X04541994Y04838002D03*
X04625001Y04632008D03*
X04630005Y05238991D03*
X04342985Y05027003D03*
X04268994Y05313998D03*
X04253983Y05008995D03*
X04195995Y05230991D03*
X04139988Y05181994D03*
X04088985Y05124996D03*
X04036000Y05076000D03*
X03990001Y05025987D03*
X03784997Y05278006D03*
Y05209985D03*
X03782991Y05148999D03*
X04001990Y05621998D03*
X04003006Y05697004D03*
X04315985Y05763984D03*
X04368004Y05711000D03*
G54D11*
X05046946Y04305491D02*
X04966936D01*
X05046946Y05844477D02*
X04966936D01*
G54D12*
X02948906Y05239957D02*
X03039076D01*
X02948906Y04919917D02*
X03039076D01*
G54D13*
X02939000Y04519003D03*
Y05568988D03*
X04184006Y05709120D03*
X04463990Y04629493D03*
G54D14*
X04951836Y04305491D03*
X05062046D03*
X04951836Y05844477D03*
X05062046D03*
G54D15*
X03059176Y05239957D03*
X02928806D03*
X03059176Y04919917D03*
X02928806D03*
G54D10*
X02890994Y06766999D03*
X03028992D03*
X03034986Y06461996D03*
X03174001Y06485998D03*
X03193000Y06631007D03*
X03272984Y06753994D03*
X03274991Y06488996D03*
X03277988Y06637001D03*
X03374000Y06302992D03*
X03379004Y06393009D03*
X03382001Y06485008D03*
X04290000Y06726003D03*
X04330005Y06677007D03*
X04371992Y06496006D03*
X04376005Y06594990D03*
X04414994Y06899003D03*
X04463990Y06497987D03*
X04541994Y06918002D03*
X04625001Y06712008D03*
X04630005Y07318992D03*
X04342985Y07107003D03*
X04268994Y07393998D03*
X04253983Y07088995D03*
X04195995Y07310991D03*
X04139988Y07261994D03*
X04088985Y07204996D03*
X04036000Y07156000D03*
X03990001Y07105987D03*
X03784997Y07358006D03*
Y07289985D03*
X03782991Y07228999D03*
X04001990Y07701998D03*
X04003006Y07777004D03*
X04315985Y07843984D03*
X04368004Y07791000D03*
G54D11*
X05046946Y06385491D02*
X04966936D01*
X05046946Y07924477D02*
X04966936D01*
G54D12*
X02948906Y07319957D02*
X03039076D01*
X02948906Y06999917D02*
X03039076D01*
G54D13*
X02939000Y06599003D03*
Y07648988D03*
X04184006Y07789120D03*
X04463990Y06709493D03*
G54D14*
X04951836Y06385491D03*
X05062046D03*
X04951836Y07924477D03*
X05062046D03*
G54D15*
X03059176Y07319957D03*
X02928806D03*
X03059176Y06999917D03*
X02928806D03*
G54D10*
X02890994Y08846999D03*
X03028992D03*
X03034986Y08541996D03*
X03174001Y08565999D03*
X03193000Y08711007D03*
X03272984Y08833994D03*
X03274991Y08568996D03*
X03277988Y08717002D03*
X03374000Y08382991D03*
X03379004Y08473009D03*
X03382001Y08565008D03*
X04290000Y08806003D03*
X04330005Y08757007D03*
X04371992Y08576006D03*
X04376005Y08674990D03*
X04414994Y08979003D03*
X04463990Y08577987D03*
X04541994Y08998002D03*
X04625001Y08792008D03*
X04630005Y09398992D03*
X04342985Y09187003D03*
X04268994Y09473998D03*
X04253983Y09168995D03*
X04195995Y09390991D03*
X04139988Y09341994D03*
X04088985Y09284996D03*
X04036000Y09236000D03*
X03990001Y09185987D03*
X03784997Y09438006D03*
Y09369985D03*
X03782991Y09308999D03*
X04001990Y09781998D03*
X04003006Y09857004D03*
X04315985Y09923984D03*
X04368004Y09871000D03*
G54D11*
X05046946Y08465491D02*
X04966936D01*
X05046946Y10004477D02*
X04966936D01*
G54D12*
X02948906Y09399957D02*
X03039076D01*
X02948906Y09079917D02*
X03039076D01*
G54D13*
X02939000Y08679003D03*
Y09728988D03*
X04184006Y09869120D03*
X04463990Y08789493D03*
G54D14*
X04951836Y08465491D03*
X05062046D03*
X04951836Y10004477D03*
X05062046D03*
G54D15*
X03059176Y09399957D03*
X02928806D03*
X03059176Y09079917D03*
X02928806D03*
G54D10*
X02890994Y10926999D03*
X03028992D03*
X03034986Y10621996D03*
X03174001Y10645998D03*
X03193000Y10791007D03*
X03272984Y10913994D03*
X03274991Y10648996D03*
X03277988Y10797001D03*
X03374000Y10462991D03*
X03379004Y10553009D03*
X03382001Y10645008D03*
X04290000Y10886003D03*
X04330005Y10837007D03*
X04371992Y10656006D03*
X04376005Y10754990D03*
X04414994Y11059003D03*
X04463990Y10657987D03*
X04541994Y11078002D03*
X04625001Y10872008D03*
X04630005Y11478992D03*
X04342985Y11267003D03*
X04268994Y11553998D03*
X04253983Y11248995D03*
X04195995Y11470991D03*
X04139988Y11421994D03*
X04088985Y11364996D03*
X04036000Y11316000D03*
X03990001Y11265987D03*
X03784997Y11518006D03*
Y11449985D03*
X03782991Y11388999D03*
X04001990Y11861998D03*
X04003006Y11937004D03*
X04315985Y12003984D03*
X04368004Y11951000D03*
G54D11*
X05046946Y10545491D02*
X04966936D01*
X05046946Y12084477D02*
X04966936D01*
G54D12*
X02948906Y11479957D02*
X03039076D01*
X02948906Y11159917D02*
X03039076D01*
G54D13*
X02939000Y10759003D03*
Y11808988D03*
X04184006Y11949120D03*
X04463990Y10869493D03*
G54D14*
X04951836Y10545491D03*
X05062046D03*
X04951836Y12084477D03*
X05062046D03*
G54D15*
X03059176Y11479957D03*
X02928806D03*
X03059176Y11159917D03*
X02928806D03*
G54D10*
X05675994Y00526999D03*
X05813992D03*
X05819986Y00221995D03*
X05959001Y00245998D03*
X05978000Y00391007D03*
X06057984Y00513994D03*
X06059991Y00248996D03*
X06062988Y00397002D03*
X06159000Y00062991D03*
X06164004Y00153009D03*
X06167001Y00245008D03*
X07075000Y00486003D03*
X07115005Y00437006D03*
X07156991Y00256006D03*
X07161005Y00354990D03*
X07199994Y00659003D03*
X07248990Y00257987D03*
X07326994Y00678002D03*
X07410001Y00472008D03*
X07415005Y01078991D03*
X07127985Y00867003D03*
X07053994Y01153998D03*
X07038983Y00848994D03*
X06980995Y01070991D03*
X06924988Y01021994D03*
X06873985Y00964996D03*
X06821000Y00916000D03*
X06775001Y00865987D03*
X06569997Y01118006D03*
Y01049985D03*
X06567991Y00988999D03*
X06786990Y01461998D03*
X06788006Y01537004D03*
X07100985Y01603984D03*
X07153004Y01551000D03*
G54D11*
X07831946Y00145491D02*
X07751936D01*
X07831946Y01684477D02*
X07751936D01*
G54D12*
X05733906Y01079957D02*
X05824076D01*
X05733906Y00759917D02*
X05824076D01*
G54D13*
X05724000Y00359003D03*
Y01408988D03*
X06969006Y01549120D03*
X07248990Y00469493D03*
G54D14*
X07736836Y00145491D03*
X07847046D03*
X07736836Y01684477D03*
X07847046D03*
G54D15*
X05844176Y01079957D03*
X05713806D03*
X05844176Y00759917D03*
X05713806D03*
G54D10*
X05675994Y02606999D03*
X05813992D03*
X05819986Y02301995D03*
X05959001Y02325999D03*
X05978000Y02471007D03*
X06057984Y02593994D03*
X06059991Y02328996D03*
X06062988Y02477002D03*
X06159000Y02142991D03*
X06164004Y02233009D03*
X06167001Y02325008D03*
X07075000Y02566003D03*
X07115005Y02517006D03*
X07156991Y02336006D03*
X07161005Y02434990D03*
X07199994Y02739003D03*
X07248990Y02337987D03*
X07326994Y02758002D03*
X07410001Y02552008D03*
X07415005Y03158992D03*
X07127985Y02947003D03*
X07053994Y03233998D03*
X07038983Y02928995D03*
X06980995Y03150991D03*
X06924988Y03101994D03*
X06873985Y03044996D03*
X06821000Y02996000D03*
X06775001Y02945987D03*
X06569997Y03198006D03*
Y03129985D03*
X06567991Y03068999D03*
X06786990Y03541998D03*
X06788006Y03617004D03*
X07100985Y03683984D03*
X07153004Y03631000D03*
G54D11*
X07831946Y02225491D02*
X07751936D01*
X07831946Y03764477D02*
X07751936D01*
G54D12*
X05733906Y03159957D02*
X05824076D01*
X05733906Y02839917D02*
X05824076D01*
G54D13*
X05724000Y02439003D03*
Y03488988D03*
X06969006Y03629120D03*
X07248990Y02549493D03*
G54D14*
X07736836Y02225491D03*
X07847046D03*
X07736836Y03764477D03*
X07847046D03*
G54D15*
X05844176Y03159957D03*
X05713806D03*
X05844176Y02839917D03*
X05713806D03*
G54D10*
X05675994Y04686999D03*
X05813992D03*
X05819986Y04381996D03*
X05959001Y04405999D03*
X05978000Y04551007D03*
X06057984Y04673994D03*
X06059991Y04408996D03*
X06062988Y04557002D03*
X06159000Y04222992D03*
X06164004Y04313009D03*
X06167001Y04405008D03*
X07075000Y04646003D03*
X07115005Y04597007D03*
X07156991Y04416006D03*
X07161005Y04514990D03*
X07199994Y04819003D03*
X07248990Y04417987D03*
X07326994Y04838002D03*
X07410001Y04632008D03*
X07415005Y05238991D03*
X07127985Y05027003D03*
X07053994Y05313998D03*
X07038983Y05008995D03*
X06980995Y05230991D03*
X06924988Y05181994D03*
X06873985Y05124996D03*
X06821000Y05076000D03*
X06775001Y05025987D03*
X06569997Y05278006D03*
Y05209985D03*
X06567991Y05148999D03*
X06786990Y05621998D03*
X06788006Y05697004D03*
X07100985Y05763984D03*
X07153004Y05711000D03*
G54D11*
X07831946Y04305491D02*
X07751936D01*
X07831946Y05844477D02*
X07751936D01*
G54D12*
X05733906Y05239957D02*
X05824076D01*
X05733906Y04919917D02*
X05824076D01*
G54D13*
X05724000Y04519003D03*
Y05568988D03*
X06969006Y05709120D03*
X07248990Y04629493D03*
G54D14*
X07736836Y04305491D03*
X07847046D03*
X07736836Y05844477D03*
X07847046D03*
G54D15*
X05844176Y05239957D03*
X05713806D03*
X05844176Y04919917D03*
X05713806D03*
G54D10*
X05675994Y06766999D03*
X05813992D03*
X05819986Y06461996D03*
X05959001Y06485998D03*
X05978000Y06631007D03*
X06057984Y06753994D03*
X06059991Y06488996D03*
X06062988Y06637001D03*
X06159000Y06302992D03*
X06164004Y06393009D03*
X06167001Y06485008D03*
X07075000Y06726003D03*
X07115005Y06677007D03*
X07156991Y06496006D03*
X07161005Y06594990D03*
X07199994Y06899003D03*
X07248990Y06497987D03*
X07326994Y06918002D03*
X07410001Y06712008D03*
X07415005Y07318992D03*
X07127985Y07107003D03*
X07053994Y07393998D03*
X07038983Y07088995D03*
X06980995Y07310991D03*
X06924988Y07261994D03*
X06873985Y07204996D03*
X06821000Y07156000D03*
X06775001Y07105987D03*
X06569997Y07358006D03*
Y07289985D03*
X06567991Y07228999D03*
X06786990Y07701998D03*
X06788006Y07777004D03*
X07100985Y07843984D03*
X07153004Y07791000D03*
G54D11*
X07831946Y06385491D02*
X07751936D01*
X07831946Y07924477D02*
X07751936D01*
G54D12*
X05733906Y07319957D02*
X05824076D01*
X05733906Y06999917D02*
X05824076D01*
G54D13*
X05724000Y06599003D03*
Y07648988D03*
X06969006Y07789120D03*
X07248990Y06709493D03*
G54D14*
X07736836Y06385491D03*
X07847046D03*
X07736836Y07924477D03*
X07847046D03*
G54D15*
X05844176Y07319957D03*
X05713806D03*
X05844176Y06999917D03*
X05713806D03*
G54D10*
X05675994Y08846999D03*
X05813992D03*
X05819986Y08541996D03*
X05959001Y08565999D03*
X05978000Y08711007D03*
X06057984Y08833994D03*
X06059991Y08568996D03*
X06062988Y08717002D03*
X06159000Y08382991D03*
X06164004Y08473009D03*
X06167001Y08565008D03*
X07075000Y08806003D03*
X07115005Y08757007D03*
X07156991Y08576006D03*
X07161005Y08674990D03*
X07199994Y08979003D03*
X07248990Y08577987D03*
X07326994Y08998002D03*
X07410001Y08792008D03*
X07415005Y09398992D03*
X07127985Y09187003D03*
X07053994Y09473998D03*
X07038983Y09168995D03*
X06980995Y09390991D03*
X06924988Y09341994D03*
X06873985Y09284996D03*
X06821000Y09236000D03*
X06775001Y09185987D03*
X06569997Y09438006D03*
Y09369985D03*
X06567991Y09308999D03*
X06786990Y09781998D03*
X06788006Y09857004D03*
X07100985Y09923984D03*
X07153004Y09871000D03*
G54D11*
X07831946Y08465491D02*
X07751936D01*
X07831946Y10004477D02*
X07751936D01*
G54D12*
X05733906Y09399957D02*
X05824076D01*
X05733906Y09079917D02*
X05824076D01*
G54D13*
X05724000Y08679003D03*
Y09728988D03*
X06969006Y09869120D03*
X07248990Y08789493D03*
G54D14*
X07736836Y08465491D03*
X07847046D03*
X07736836Y10004477D03*
X07847046D03*
G54D15*
X05844176Y09399957D03*
X05713806D03*
X05844176Y09079917D03*
X05713806D03*
G54D10*
X05675994Y10926999D03*
X05813992D03*
X05819986Y10621996D03*
X05959001Y10645998D03*
X05978000Y10791007D03*
X06057984Y10913994D03*
X06059991Y10648996D03*
X06062988Y10797001D03*
X06159000Y10462991D03*
X06164004Y10553009D03*
X06167001Y10645008D03*
X07075000Y10886003D03*
X07115005Y10837007D03*
X07156991Y10656006D03*
X07161005Y10754990D03*
X07199994Y11059003D03*
X07248990Y10657987D03*
X07326994Y11078002D03*
X07410001Y10872008D03*
X07415005Y11478992D03*
X07127985Y11267003D03*
X07053994Y11553998D03*
X07038983Y11248995D03*
X06980995Y11470991D03*
X06924988Y11421994D03*
X06873985Y11364996D03*
X06821000Y11316000D03*
X06775001Y11265987D03*
X06569997Y11518006D03*
Y11449985D03*
X06567991Y11388999D03*
X06786990Y11861998D03*
X06788006Y11937004D03*
X07100985Y12003984D03*
X07153004Y11951000D03*
G54D11*
X07831946Y10545491D02*
X07751936D01*
X07831946Y12084477D02*
X07751936D01*
G54D12*
X05733906Y11479957D02*
X05824076D01*
X05733906Y11159917D02*
X05824076D01*
G54D13*
X05724000Y10759003D03*
Y11808988D03*
X06969006Y11949120D03*
X07248990Y10869493D03*
G54D14*
X07736836Y10545491D03*
X07847046D03*
X07736836Y12084477D03*
X07847046D03*
G54D15*
X05844176Y11479957D03*
X05713806D03*
X05844176Y11159917D03*
X05713806D03*
G54D10*
X08460994Y00526999D03*
X08598992D03*
X08604986Y00221995D03*
X08744001Y00245998D03*
X08763000Y00391007D03*
X08842984Y00513994D03*
X08844991Y00248996D03*
X08847988Y00397002D03*
X08944000Y00062991D03*
X08949004Y00153009D03*
X08952001Y00245008D03*
X09860000Y00486003D03*
X09900005Y00437006D03*
X09941991Y00256006D03*
X09946005Y00354990D03*
X09984994Y00659003D03*
X10033990Y00257987D03*
X10111994Y00678002D03*
X10195001Y00472008D03*
X10200005Y01078991D03*
X09912985Y00867003D03*
X09838995Y01153998D03*
X09823983Y00848994D03*
X09765995Y01070991D03*
X09709988Y01021994D03*
X09658985Y00964996D03*
X09606000Y00916000D03*
X09560001Y00865987D03*
X09354998Y01118006D03*
Y01049985D03*
X09352991Y00988999D03*
X09571990Y01461998D03*
X09573006Y01537004D03*
X09885985Y01603984D03*
X09938004Y01551000D03*
G54D11*
X10616946Y00145491D02*
X10536936D01*
X10616946Y01684477D02*
X10536936D01*
G54D12*
X08518906Y01079957D02*
X08609076D01*
X08518906Y00759917D02*
X08609076D01*
G54D13*
X08509000Y00359003D03*
Y01408988D03*
X09754006Y01549120D03*
X10033990Y00469493D03*
G54D14*
X10521836Y00145491D03*
X10632046D03*
X10521836Y01684477D03*
X10632046D03*
G54D15*
X08629176Y01079957D03*
X08498806D03*
X08629176Y00759917D03*
X08498806D03*
G54D10*
X08460994Y02606999D03*
X08598992D03*
X08604986Y02301995D03*
X08744001Y02325999D03*
X08763000Y02471007D03*
X08842984Y02593994D03*
X08844991Y02328996D03*
X08847988Y02477002D03*
X08944000Y02142991D03*
X08949004Y02233009D03*
X08952001Y02325008D03*
X09860000Y02566003D03*
X09900005Y02517006D03*
X09941991Y02336006D03*
X09946005Y02434990D03*
X09984994Y02739003D03*
X10033990Y02337987D03*
X10111994Y02758002D03*
X10195001Y02552008D03*
X10200005Y03158992D03*
X09912985Y02947003D03*
X09838995Y03233998D03*
X09823983Y02928995D03*
X09765995Y03150991D03*
X09709988Y03101994D03*
X09658985Y03044996D03*
X09606000Y02996000D03*
X09560001Y02945987D03*
X09354998Y03198006D03*
Y03129985D03*
X09352991Y03068999D03*
X09571990Y03541998D03*
X09573006Y03617004D03*
X09885985Y03683984D03*
X09938004Y03631000D03*
G54D11*
X10616946Y02225491D02*
X10536936D01*
X10616946Y03764477D02*
X10536936D01*
G54D12*
X08518906Y03159957D02*
X08609076D01*
X08518906Y02839917D02*
X08609076D01*
G54D13*
X08509000Y02439003D03*
Y03488988D03*
X09754006Y03629120D03*
X10033990Y02549493D03*
G54D14*
X10521836Y02225491D03*
X10632046D03*
X10521836Y03764477D03*
X10632046D03*
G54D15*
X08629176Y03159957D03*
X08498806D03*
X08629176Y02839917D03*
X08498806D03*
G54D10*
X08460994Y04686999D03*
X08598992D03*
X08604986Y04381996D03*
X08744001Y04405999D03*
X08763000Y04551007D03*
X08842984Y04673994D03*
X08844991Y04408996D03*
X08847988Y04557002D03*
X08944000Y04222992D03*
X08949004Y04313009D03*
X08952001Y04405008D03*
X09860000Y04646003D03*
X09900005Y04597007D03*
X09941991Y04416006D03*
X09946005Y04514990D03*
X09984994Y04819003D03*
X10033990Y04417987D03*
X10111994Y04838002D03*
X10195001Y04632008D03*
X10200005Y05238991D03*
X09912985Y05027003D03*
X09838995Y05313998D03*
X09823983Y05008995D03*
X09765995Y05230991D03*
X09709988Y05181994D03*
X09658985Y05124996D03*
X09606000Y05076000D03*
X09560001Y05025987D03*
X09354998Y05278006D03*
Y05209985D03*
X09352991Y05148999D03*
X09571990Y05621998D03*
X09573006Y05697004D03*
X09885985Y05763984D03*
X09938004Y05711000D03*
G54D11*
X10616946Y04305491D02*
X10536936D01*
X10616946Y05844477D02*
X10536936D01*
G54D12*
X08518906Y05239957D02*
X08609076D01*
X08518906Y04919917D02*
X08609076D01*
G54D13*
X08509000Y04519003D03*
Y05568988D03*
X09754006Y05709120D03*
X10033990Y04629493D03*
G54D14*
X10521836Y04305491D03*
X10632046D03*
X10521836Y05844477D03*
X10632046D03*
G54D15*
X08629176Y05239957D03*
X08498806D03*
X08629176Y04919917D03*
X08498806D03*
G54D10*
X08460994Y06766999D03*
X08598992D03*
X08604986Y06461996D03*
X08744001Y06485998D03*
X08763000Y06631007D03*
X08842984Y06753994D03*
X08844991Y06488996D03*
X08847988Y06637001D03*
X08944000Y06302992D03*
X08949004Y06393009D03*
X08952001Y06485008D03*
X09860000Y06726003D03*
X09900005Y06677007D03*
X09941991Y06496006D03*
X09946005Y06594990D03*
X09984994Y06899003D03*
X10033990Y06497987D03*
X10111994Y06918002D03*
X10195001Y06712008D03*
X10200005Y07318992D03*
X09912985Y07107003D03*
X09838995Y07393998D03*
X09823983Y07088995D03*
X09765995Y07310991D03*
X09709988Y07261994D03*
X09658985Y07204996D03*
X09606000Y07156000D03*
X09560001Y07105987D03*
X09354998Y07358006D03*
Y07289985D03*
X09352991Y07228999D03*
X09571990Y07701998D03*
X09573006Y07777004D03*
X09885985Y07843984D03*
X09938004Y07791000D03*
G54D11*
X10616946Y06385491D02*
X10536936D01*
X10616946Y07924477D02*
X10536936D01*
G54D12*
X08518906Y07319957D02*
X08609076D01*
X08518906Y06999917D02*
X08609076D01*
G54D13*
X08509000Y06599003D03*
Y07648988D03*
X09754006Y07789120D03*
X10033990Y06709493D03*
G54D14*
X10521836Y06385491D03*
X10632046D03*
X10521836Y07924477D03*
X10632046D03*
G54D15*
X08629176Y07319957D03*
X08498806D03*
X08629176Y06999917D03*
X08498806D03*
G54D10*
X08460994Y08846999D03*
X08598992D03*
X08604986Y08541996D03*
X08744001Y08565999D03*
X08763000Y08711007D03*
X08842984Y08833994D03*
X08844991Y08568996D03*
X08847988Y08717002D03*
X08944000Y08382991D03*
X08949004Y08473009D03*
X08952001Y08565008D03*
X09860000Y08806003D03*
X09900005Y08757007D03*
X09941991Y08576006D03*
X09946005Y08674990D03*
X09984994Y08979003D03*
X10033990Y08577987D03*
X10111994Y08998002D03*
X10195001Y08792008D03*
X10200005Y09398992D03*
X09912985Y09187003D03*
X09838995Y09473998D03*
X09823983Y09168995D03*
X09765995Y09390991D03*
X09709988Y09341994D03*
X09658985Y09284996D03*
X09606000Y09236000D03*
X09560001Y09185987D03*
X09354998Y09438006D03*
Y09369985D03*
X09352991Y09308999D03*
X09571990Y09781998D03*
X09573006Y09857004D03*
X09885985Y09923984D03*
X09938004Y09871000D03*
G54D11*
X10616946Y08465491D02*
X10536936D01*
X10616946Y10004477D02*
X10536936D01*
G54D12*
X08518906Y09399957D02*
X08609076D01*
X08518906Y09079917D02*
X08609076D01*
G54D13*
X08509000Y08679003D03*
Y09728988D03*
X09754006Y09869120D03*
X10033990Y08789493D03*
G54D14*
X10521836Y08465491D03*
X10632046D03*
X10521836Y10004477D03*
X10632046D03*
G54D15*
X08629176Y09399957D03*
X08498806D03*
X08629176Y09079917D03*
X08498806D03*
G54D10*
X08460994Y10926999D03*
X08598992D03*
X08604986Y10621996D03*
X08744001Y10645998D03*
X08763000Y10791007D03*
X08842984Y10913994D03*
X08844991Y10648996D03*
X08847988Y10797001D03*
X08944000Y10462991D03*
X08949004Y10553009D03*
X08952001Y10645008D03*
X09860000Y10886003D03*
X09900005Y10837007D03*
X09941991Y10656006D03*
X09946005Y10754990D03*
X09984994Y11059003D03*
X10033990Y10657987D03*
X10111994Y11078002D03*
X10195001Y10872008D03*
X10200005Y11478992D03*
X09912985Y11267003D03*
X09838995Y11553998D03*
X09823983Y11248995D03*
X09765995Y11470991D03*
X09709988Y11421994D03*
X09658985Y11364996D03*
X09606000Y11316000D03*
X09560001Y11265987D03*
X09354998Y11518006D03*
Y11449985D03*
X09352991Y11388999D03*
X09571990Y11861998D03*
X09573006Y11937004D03*
X09885985Y12003984D03*
X09938004Y11951000D03*
G54D11*
X10616946Y10545491D02*
X10536936D01*
X10616946Y12084477D02*
X10536936D01*
G54D12*
X08518906Y11479957D02*
X08609076D01*
X08518906Y11159917D02*
X08609076D01*
G54D13*
X08509000Y10759003D03*
Y11808988D03*
X09754006Y11949120D03*
X10033990Y10869493D03*
G54D14*
X10521836Y10545491D03*
X10632046D03*
X10521836Y12084477D03*
X10632046D03*
G54D15*
X08629176Y11479957D03*
X08498806D03*
X08629176Y11159917D03*
X08498806D03*
G54D10*
X11245994Y00526999D03*
X11383992D03*
X11389986Y00221995D03*
X11529001Y00245998D03*
X11548000Y00391007D03*
X11627984Y00513994D03*
X11629991Y00248996D03*
X11632988Y00397002D03*
X11729000Y00062991D03*
X11734004Y00153009D03*
X11737001Y00245008D03*
X12645000Y00486003D03*
X12685005Y00437006D03*
X12726991Y00256006D03*
X12731005Y00354990D03*
X12769994Y00659003D03*
X12818990Y00257987D03*
X12896994Y00678002D03*
X12980001Y00472008D03*
X12985005Y01078991D03*
X12697985Y00867003D03*
X12623995Y01153998D03*
X12608983Y00848994D03*
X12550995Y01070991D03*
X12494988Y01021994D03*
X12443985Y00964996D03*
X12391000Y00916000D03*
X12345001Y00865987D03*
X12139998Y01118006D03*
Y01049985D03*
X12137991Y00988999D03*
X12356990Y01461998D03*
X12358006Y01537004D03*
X12670985Y01603984D03*
X12723004Y01551000D03*
G54D11*
X13401946Y00145491D02*
X13321936D01*
X13401946Y01684477D02*
X13321936D01*
G54D12*
X11303906Y01079957D02*
X11394076D01*
X11303906Y00759917D02*
X11394076D01*
G54D13*
X11294000Y00359003D03*
Y01408988D03*
X12539006Y01549120D03*
X12818990Y00469493D03*
G54D14*
X13306836Y00145491D03*
X13417046D03*
X13306836Y01684477D03*
X13417046D03*
G54D15*
X11414176Y01079957D03*
X11283806D03*
X11414176Y00759917D03*
X11283806D03*
G54D10*
X11245994Y02606999D03*
X11383992D03*
X11389986Y02301995D03*
X11529001Y02325999D03*
X11548000Y02471007D03*
X11627984Y02593994D03*
X11629991Y02328996D03*
X11632988Y02477002D03*
X11729000Y02142991D03*
X11734004Y02233009D03*
X11737001Y02325008D03*
X12645000Y02566003D03*
X12685005Y02517006D03*
X12726991Y02336006D03*
X12731005Y02434990D03*
X12769994Y02739003D03*
X12818990Y02337987D03*
X12896994Y02758002D03*
X12980001Y02552008D03*
X12985005Y03158992D03*
X12697985Y02947003D03*
X12623995Y03233998D03*
X12608983Y02928995D03*
X12550995Y03150991D03*
X12494988Y03101994D03*
X12443985Y03044996D03*
X12391000Y02996000D03*
X12345001Y02945987D03*
X12139998Y03198006D03*
Y03129985D03*
X12137991Y03068999D03*
X12356990Y03541998D03*
X12358006Y03617004D03*
X12670985Y03683984D03*
X12723004Y03631000D03*
G54D11*
X13401946Y02225491D02*
X13321936D01*
X13401946Y03764477D02*
X13321936D01*
G54D12*
X11303906Y03159957D02*
X11394076D01*
X11303906Y02839917D02*
X11394076D01*
G54D13*
X11294000Y02439003D03*
Y03488988D03*
X12539006Y03629120D03*
X12818990Y02549493D03*
G54D14*
X13306836Y02225491D03*
X13417046D03*
X13306836Y03764477D03*
X13417046D03*
G54D15*
X11414176Y03159957D03*
X11283806D03*
X11414176Y02839917D03*
X11283806D03*
G54D10*
X11245994Y04686999D03*
X11383992D03*
X11389986Y04381996D03*
X11529001Y04405999D03*
X11548000Y04551007D03*
X11627984Y04673994D03*
X11629991Y04408996D03*
X11632988Y04557002D03*
X11729000Y04222992D03*
X11734004Y04313009D03*
X11737001Y04405008D03*
X12645000Y04646003D03*
X12685005Y04597007D03*
X12726991Y04416006D03*
X12731005Y04514990D03*
X12769994Y04819003D03*
X12818990Y04417987D03*
X12896994Y04838002D03*
X12980001Y04632008D03*
X12985005Y05238991D03*
X12697985Y05027003D03*
X12623995Y05313998D03*
X12608983Y05008995D03*
X12550995Y05230991D03*
X12494988Y05181994D03*
X12443985Y05124996D03*
X12391000Y05076000D03*
X12345001Y05025987D03*
X12139998Y05278006D03*
Y05209985D03*
X12137991Y05148999D03*
X12356990Y05621998D03*
X12358006Y05697004D03*
X12670985Y05763984D03*
X12723004Y05711000D03*
G54D11*
X13401946Y04305491D02*
X13321936D01*
X13401946Y05844477D02*
X13321936D01*
G54D12*
X11303906Y05239957D02*
X11394076D01*
X11303906Y04919917D02*
X11394076D01*
G54D13*
X11294000Y04519003D03*
Y05568988D03*
X12539006Y05709120D03*
X12818990Y04629493D03*
G54D14*
X13306836Y04305491D03*
X13417046D03*
X13306836Y05844477D03*
X13417046D03*
G54D15*
X11414176Y05239957D03*
X11283806D03*
X11414176Y04919917D03*
X11283806D03*
G54D10*
X11245994Y06766999D03*
X11383992D03*
X11389986Y06461996D03*
X11529001Y06485998D03*
X11548000Y06631007D03*
X11627984Y06753994D03*
X11629991Y06488996D03*
X11632988Y06637001D03*
X11729000Y06302992D03*
X11734004Y06393009D03*
X11737001Y06485008D03*
X12645000Y06726003D03*
X12685005Y06677007D03*
X12726991Y06496006D03*
X12731005Y06594990D03*
X12769994Y06899003D03*
X12818990Y06497987D03*
X12896994Y06918002D03*
X12980001Y06712008D03*
X12985005Y07318992D03*
X12697985Y07107003D03*
X12623995Y07393998D03*
X12608983Y07088995D03*
X12550995Y07310991D03*
X12494988Y07261994D03*
X12443985Y07204996D03*
X12391000Y07156000D03*
X12345001Y07105987D03*
X12139998Y07358006D03*
Y07289985D03*
X12137991Y07228999D03*
X12356990Y07701998D03*
X12358006Y07777004D03*
X12670985Y07843984D03*
X12723004Y07791000D03*
G54D11*
X13401946Y06385491D02*
X13321936D01*
X13401946Y07924477D02*
X13321936D01*
G54D12*
X11303906Y07319957D02*
X11394076D01*
X11303906Y06999917D02*
X11394076D01*
G54D13*
X11294000Y06599003D03*
Y07648988D03*
X12539006Y07789120D03*
X12818990Y06709493D03*
G54D14*
X13306836Y06385491D03*
X13417046D03*
X13306836Y07924477D03*
X13417046D03*
G54D15*
X11414176Y07319957D03*
X11283806D03*
X11414176Y06999917D03*
X11283806D03*
G54D10*
X11245994Y08846999D03*
X11383992D03*
X11389986Y08541996D03*
X11529001Y08565999D03*
X11548000Y08711007D03*
X11627984Y08833994D03*
X11629991Y08568996D03*
X11632988Y08717002D03*
X11729000Y08382991D03*
X11734004Y08473009D03*
X11737001Y08565008D03*
X12645000Y08806003D03*
X12685005Y08757007D03*
X12726991Y08576006D03*
X12731005Y08674990D03*
X12769994Y08979003D03*
X12818990Y08577987D03*
X12896994Y08998002D03*
X12980001Y08792008D03*
X12985005Y09398992D03*
X12697985Y09187003D03*
X12623995Y09473998D03*
X12608983Y09168995D03*
X12550995Y09390991D03*
X12494988Y09341994D03*
X12443985Y09284996D03*
X12391000Y09236000D03*
X12345001Y09185987D03*
X12139998Y09438006D03*
Y09369985D03*
X12137991Y09308999D03*
X12356990Y09781998D03*
X12358006Y09857004D03*
X12670985Y09923984D03*
X12723004Y09871000D03*
G54D11*
X13401946Y08465491D02*
X13321936D01*
X13401946Y10004477D02*
X13321936D01*
G54D12*
X11303906Y09399957D02*
X11394076D01*
X11303906Y09079917D02*
X11394076D01*
G54D13*
X11294000Y08679003D03*
Y09728988D03*
X12539006Y09869120D03*
X12818990Y08789493D03*
G54D14*
X13306836Y08465491D03*
X13417046D03*
X13306836Y10004477D03*
X13417046D03*
G54D15*
X11414176Y09399957D03*
X11283806D03*
X11414176Y09079917D03*
X11283806D03*
G54D10*
X11245994Y10926999D03*
X11383992D03*
X11389986Y10621996D03*
X11529001Y10645998D03*
X11548000Y10791007D03*
X11627984Y10913994D03*
X11629991Y10648996D03*
X11632988Y10797001D03*
X11729000Y10462991D03*
X11734004Y10553009D03*
X11737001Y10645008D03*
X12645000Y10886003D03*
X12685005Y10837007D03*
X12726991Y10656006D03*
X12731005Y10754990D03*
X12769994Y11059003D03*
X12818990Y10657987D03*
X12896994Y11078002D03*
X12980001Y10872008D03*
X12985005Y11478992D03*
X12697985Y11267003D03*
X12623995Y11553998D03*
X12608983Y11248995D03*
X12550995Y11470991D03*
X12494988Y11421994D03*
X12443985Y11364996D03*
X12391000Y11316000D03*
X12345001Y11265987D03*
X12139998Y11518006D03*
Y11449985D03*
X12137991Y11388999D03*
X12356990Y11861998D03*
X12358006Y11937004D03*
X12670985Y12003984D03*
X12723004Y11951000D03*
G54D11*
X13401946Y10545491D02*
X13321936D01*
X13401946Y12084477D02*
X13321936D01*
G54D12*
X11303906Y11479957D02*
X11394076D01*
X11303906Y11159917D02*
X11394076D01*
G54D13*
X11294000Y10759003D03*
Y11808988D03*
X12539006Y11949120D03*
X12818990Y10869493D03*
G54D14*
X13306836Y10545491D03*
X13417046D03*
X13306836Y12084477D03*
X13417046D03*
G54D15*
X11414176Y11479957D03*
X11283806D03*
X11414176Y11159917D03*
X11283806D03*
G54D10*
X14030994Y00526999D03*
X14168992D03*
X14174986Y00221995D03*
X14314000Y00245998D03*
X14333000Y00391007D03*
X14412984Y00513994D03*
X14414991Y00248996D03*
X14417988Y00397002D03*
X14514000Y00062991D03*
X14519004Y00153009D03*
X14522001Y00245008D03*
X15430000Y00486003D03*
X15470005Y00437006D03*
X15511992Y00256006D03*
X15516005Y00354990D03*
X15554994Y00659003D03*
X15603990Y00257987D03*
X15681994Y00678002D03*
X15765001Y00472008D03*
X15770005Y01078991D03*
X15482985Y00867003D03*
X15408995Y01153998D03*
X15393983Y00848994D03*
X15335995Y01070991D03*
X15279988Y01021994D03*
X15228985Y00964996D03*
X15176000Y00916000D03*
X15130001Y00865987D03*
X14924998Y01118006D03*
Y01049985D03*
X14922991Y00988999D03*
X15141990Y01461998D03*
X15143006Y01537004D03*
X15455985Y01603984D03*
X15508004Y01551000D03*
G54D11*
X16186946Y00145491D02*
X16106936D01*
X16186946Y01684477D02*
X16106936D01*
G54D12*
X14088906Y01079957D02*
X14179076D01*
X14088906Y00759917D02*
X14179076D01*
G54D13*
X14079000Y00359003D03*
Y01408988D03*
X15324006Y01549120D03*
X15603990Y00469493D03*
G54D14*
X16091836Y00145491D03*
X16202046D03*
X16091836Y01684477D03*
X16202046D03*
G54D15*
X14199176Y01079957D03*
X14068806D03*
X14199176Y00759917D03*
X14068806D03*
G54D10*
X14030994Y02606999D03*
X14168992D03*
X14174986Y02301995D03*
X14314000Y02325999D03*
X14333000Y02471007D03*
X14412984Y02593994D03*
X14414991Y02328996D03*
X14417988Y02477002D03*
X14514000Y02142991D03*
X14519004Y02233009D03*
X14522001Y02325008D03*
X15430000Y02566003D03*
X15470005Y02517006D03*
X15511992Y02336006D03*
X15516005Y02434990D03*
X15554994Y02739003D03*
X15603990Y02337987D03*
X15681994Y02758002D03*
X15765001Y02552008D03*
X15770005Y03158992D03*
X15482985Y02947003D03*
X15408995Y03233998D03*
X15393983Y02928995D03*
X15335995Y03150991D03*
X15279988Y03101994D03*
X15228985Y03044996D03*
X15176000Y02996000D03*
X15130001Y02945987D03*
X14924998Y03198006D03*
Y03129985D03*
X14922991Y03068999D03*
X15141990Y03541998D03*
X15143006Y03617004D03*
X15455985Y03683984D03*
X15508004Y03631000D03*
G54D11*
X16186946Y02225491D02*
X16106936D01*
X16186946Y03764477D02*
X16106936D01*
G54D12*
X14088906Y03159957D02*
X14179076D01*
X14088906Y02839917D02*
X14179076D01*
G54D13*
X14079000Y02439003D03*
Y03488988D03*
X15324006Y03629120D03*
X15603990Y02549493D03*
G54D14*
X16091836Y02225491D03*
X16202046D03*
X16091836Y03764477D03*
X16202046D03*
G54D15*
X14199176Y03159957D03*
X14068806D03*
X14199176Y02839917D03*
X14068806D03*
G54D10*
X14030994Y04686999D03*
X14168992D03*
X14174986Y04381996D03*
X14314000Y04405999D03*
X14333000Y04551007D03*
X14412984Y04673994D03*
X14414991Y04408996D03*
X14417988Y04557002D03*
X14514000Y04222992D03*
X14519004Y04313009D03*
X14522001Y04405008D03*
X15430000Y04646003D03*
X15470005Y04597007D03*
X15511992Y04416006D03*
X15516005Y04514990D03*
X15554994Y04819003D03*
X15603990Y04417987D03*
X15681994Y04838002D03*
X15765001Y04632008D03*
X15770005Y05238991D03*
X15482985Y05027003D03*
X15408995Y05313998D03*
X15393983Y05008995D03*
X15335995Y05230991D03*
X15279988Y05181994D03*
X15228985Y05124996D03*
X15176000Y05076000D03*
X15130001Y05025987D03*
X14924998Y05278006D03*
Y05209985D03*
X14922991Y05148999D03*
X15141990Y05621998D03*
X15143006Y05697004D03*
X15455985Y05763984D03*
X15508004Y05711000D03*
G54D11*
X16186946Y04305491D02*
X16106936D01*
X16186946Y05844477D02*
X16106936D01*
G54D12*
X14088906Y05239957D02*
X14179076D01*
X14088906Y04919917D02*
X14179076D01*
G54D13*
X14079000Y04519003D03*
Y05568988D03*
X15324006Y05709120D03*
X15603990Y04629493D03*
G54D14*
X16091836Y04305491D03*
X16202046D03*
X16091836Y05844477D03*
X16202046D03*
G54D15*
X14199176Y05239957D03*
X14068806D03*
X14199176Y04919917D03*
X14068806D03*
G54D10*
X14030994Y06766999D03*
X14168992D03*
X14174986Y06461996D03*
X14314000Y06485998D03*
X14333000Y06631007D03*
X14412984Y06753994D03*
X14414991Y06488996D03*
X14417988Y06637001D03*
X14514000Y06302992D03*
X14519004Y06393009D03*
X14522001Y06485008D03*
X15430000Y06726003D03*
X15470005Y06677007D03*
X15511992Y06496006D03*
X15516005Y06594990D03*
X15554994Y06899003D03*
X15603990Y06497987D03*
X15681994Y06918002D03*
X15765001Y06712008D03*
X15770005Y07318992D03*
X15482985Y07107003D03*
X15408995Y07393998D03*
X15393983Y07088995D03*
X15335995Y07310991D03*
X15279988Y07261994D03*
X15228985Y07204996D03*
X15176000Y07156000D03*
X15130001Y07105987D03*
X14924998Y07358006D03*
Y07289985D03*
X14922991Y07228999D03*
X15141990Y07701998D03*
X15143006Y07777004D03*
X15455985Y07843984D03*
X15508004Y07791000D03*
G54D11*
X16186946Y06385491D02*
X16106936D01*
X16186946Y07924477D02*
X16106936D01*
G54D12*
X14088906Y07319957D02*
X14179076D01*
X14088906Y06999917D02*
X14179076D01*
G54D13*
X14079000Y06599003D03*
Y07648988D03*
X15324006Y07789120D03*
X15603990Y06709493D03*
G54D14*
X16091836Y06385491D03*
X16202046D03*
X16091836Y07924477D03*
X16202046D03*
G54D15*
X14199176Y07319957D03*
X14068806D03*
X14199176Y06999917D03*
X14068806D03*
G54D10*
X14030994Y08846999D03*
X14168992D03*
X14174986Y08541996D03*
X14314000Y08565999D03*
X14333000Y08711007D03*
X14412984Y08833994D03*
X14414991Y08568996D03*
X14417988Y08717002D03*
X14514000Y08382991D03*
X14519004Y08473009D03*
X14522001Y08565008D03*
X15430000Y08806003D03*
X15470005Y08757007D03*
X15511992Y08576006D03*
X15516005Y08674990D03*
X15554994Y08979003D03*
X15603990Y08577987D03*
X15681994Y08998002D03*
X15765001Y08792008D03*
X15770005Y09398992D03*
X15482985Y09187003D03*
X15408995Y09473998D03*
X15393983Y09168995D03*
X15335995Y09390991D03*
X15279988Y09341994D03*
X15228985Y09284996D03*
X15176000Y09236000D03*
X15130001Y09185987D03*
X14924998Y09438006D03*
Y09369985D03*
X14922991Y09308999D03*
X15141990Y09781998D03*
X15143006Y09857004D03*
X15455985Y09923984D03*
X15508004Y09871000D03*
G54D11*
X16186946Y08465491D02*
X16106936D01*
X16186946Y10004477D02*
X16106936D01*
G54D12*
X14088906Y09399957D02*
X14179076D01*
X14088906Y09079917D02*
X14179076D01*
G54D13*
X14079000Y08679003D03*
Y09728988D03*
X15324006Y09869120D03*
X15603990Y08789493D03*
G54D14*
X16091836Y08465491D03*
X16202046D03*
X16091836Y10004477D03*
X16202046D03*
G54D15*
X14199176Y09399957D03*
X14068806D03*
X14199176Y09079917D03*
X14068806D03*
G54D10*
X14030994Y10926999D03*
X14168992D03*
X14174986Y10621996D03*
X14314000Y10645998D03*
X14333000Y10791007D03*
X14412984Y10913994D03*
X14414991Y10648996D03*
X14417988Y10797001D03*
X14514000Y10462991D03*
X14519004Y10553009D03*
X14522001Y10645008D03*
X15430000Y10886003D03*
X15470005Y10837007D03*
X15511992Y10656006D03*
X15516005Y10754990D03*
X15554994Y11059003D03*
X15603990Y10657987D03*
X15681994Y11078002D03*
X15765001Y10872008D03*
X15770005Y11478992D03*
X15482985Y11267003D03*
X15408995Y11553998D03*
X15393983Y11248995D03*
X15335995Y11470991D03*
X15279988Y11421994D03*
X15228985Y11364996D03*
X15176000Y11316000D03*
X15130001Y11265987D03*
X14924998Y11518006D03*
Y11449985D03*
X14922991Y11388999D03*
X15141990Y11861998D03*
X15143006Y11937004D03*
X15455985Y12003984D03*
X15508004Y11951000D03*
G54D11*
X16186946Y10545491D02*
X16106936D01*
X16186946Y12084477D02*
X16106936D01*
G54D12*
X14088906Y11479957D02*
X14179076D01*
X14088906Y11159917D02*
X14179076D01*
G54D13*
X14079000Y10759003D03*
Y11808988D03*
X15324006Y11949120D03*
X15603990Y10869493D03*
G54D14*
X16091836Y10545491D03*
X16202046D03*
X16091836Y12084477D03*
X16202046D03*
G54D15*
X14199176Y11479957D03*
X14068806D03*
X14199176Y11159917D03*
X14068806D03*
G54D10*
X16815994Y00526999D03*
X16953992D03*
X16959986Y00221995D03*
X17099001Y00245998D03*
X17118000Y00391007D03*
X17197984Y00513994D03*
X17199991Y00248996D03*
X17202988Y00397002D03*
X17299000Y00062991D03*
X17304004Y00153009D03*
X17307001Y00245008D03*
X18215000Y00486003D03*
X18255005Y00437006D03*
X18296992Y00256006D03*
X18301005Y00354990D03*
X18339994Y00659003D03*
X18388990Y00257987D03*
X18466994Y00678002D03*
X18550001Y00472008D03*
X18555005Y01078991D03*
X18267985Y00867003D03*
X18193995Y01153998D03*
X18178983Y00848994D03*
X18120995Y01070991D03*
X18064988Y01021994D03*
X18013985Y00964996D03*
X17961000Y00916000D03*
X17915001Y00865987D03*
X17709997Y01118006D03*
Y01049985D03*
X17707991Y00988999D03*
X17926990Y01461998D03*
X17928006Y01537004D03*
X18240985Y01603984D03*
X18293004Y01551000D03*
G54D11*
X18971946Y00145491D02*
X18891936D01*
X18971946Y01684477D02*
X18891936D01*
G54D12*
X16873906Y01079957D02*
X16964076D01*
X16873906Y00759917D02*
X16964076D01*
G54D13*
X16864000Y00359003D03*
Y01408988D03*
X18109006Y01549120D03*
X18388990Y00469493D03*
G54D14*
X18876836Y00145491D03*
X18987046D03*
X18876836Y01684477D03*
X18987046D03*
G54D15*
X16984176Y01079957D03*
X16853806D03*
X16984176Y00759917D03*
X16853806D03*
G54D10*
X16815994Y02606999D03*
X16953992D03*
X16959986Y02301995D03*
X17099001Y02325999D03*
X17118000Y02471007D03*
X17197984Y02593994D03*
X17199991Y02328996D03*
X17202988Y02477002D03*
X17299000Y02142991D03*
X17304004Y02233009D03*
X17307001Y02325008D03*
X18215000Y02566003D03*
X18255005Y02517006D03*
X18296992Y02336006D03*
X18301005Y02434990D03*
X18339994Y02739003D03*
X18388990Y02337987D03*
X18466994Y02758002D03*
X18550001Y02552008D03*
X18555005Y03158992D03*
X18267985Y02947003D03*
X18193995Y03233998D03*
X18178983Y02928995D03*
X18120995Y03150991D03*
X18064988Y03101994D03*
X18013985Y03044996D03*
X17961000Y02996000D03*
X17915001Y02945987D03*
X17709997Y03198006D03*
Y03129985D03*
X17707991Y03068999D03*
X17926990Y03541998D03*
X17928006Y03617004D03*
X18240985Y03683984D03*
X18293004Y03631000D03*
G54D11*
X18971946Y02225491D02*
X18891936D01*
X18971946Y03764477D02*
X18891936D01*
G54D12*
X16873906Y03159957D02*
X16964076D01*
X16873906Y02839917D02*
X16964076D01*
G54D13*
X16864000Y02439003D03*
Y03488988D03*
X18109006Y03629120D03*
X18388990Y02549493D03*
G54D14*
X18876836Y02225491D03*
X18987046D03*
X18876836Y03764477D03*
X18987046D03*
G54D15*
X16984176Y03159957D03*
X16853806D03*
X16984176Y02839917D03*
X16853806D03*
G54D10*
X16815994Y04686999D03*
X16953992D03*
X16959986Y04381996D03*
X17099001Y04405999D03*
X17118000Y04551007D03*
X17197984Y04673994D03*
X17199991Y04408996D03*
X17202988Y04557002D03*
X17299000Y04222992D03*
X17304004Y04313009D03*
X17307001Y04405008D03*
X18215000Y04646003D03*
X18255005Y04597007D03*
X18296992Y04416006D03*
X18301005Y04514990D03*
X18339994Y04819003D03*
X18388990Y04417987D03*
X18466994Y04838002D03*
X18550001Y04632008D03*
X18555005Y05238991D03*
X18267985Y05027003D03*
X18193995Y05313998D03*
X18178983Y05008995D03*
X18120995Y05230991D03*
X18064988Y05181994D03*
X18013985Y05124996D03*
X17961000Y05076000D03*
X17915001Y05025987D03*
X17709997Y05278006D03*
Y05209985D03*
X17707991Y05148999D03*
X17926990Y05621998D03*
X17928006Y05697004D03*
X18240985Y05763984D03*
X18293004Y05711000D03*
G54D11*
X18971946Y04305491D02*
X18891936D01*
X18971946Y05844477D02*
X18891936D01*
G54D12*
X16873906Y05239957D02*
X16964076D01*
X16873906Y04919917D02*
X16964076D01*
G54D13*
X16864000Y04519003D03*
Y05568988D03*
X18109006Y05709120D03*
X18388990Y04629493D03*
G54D14*
X18876836Y04305491D03*
X18987046D03*
X18876836Y05844477D03*
X18987046D03*
G54D15*
X16984176Y05239957D03*
X16853806D03*
X16984176Y04919917D03*
X16853806D03*
G54D10*
X16815994Y06766999D03*
X16953992D03*
X16959986Y06461996D03*
X17099001Y06485998D03*
X17118000Y06631007D03*
X17197984Y06753994D03*
X17199991Y06488996D03*
X17202988Y06637001D03*
X17299000Y06302992D03*
X17304004Y06393009D03*
X17307001Y06485008D03*
X18215000Y06726003D03*
X18255005Y06677007D03*
X18296992Y06496006D03*
X18301005Y06594990D03*
X18339994Y06899003D03*
X18388990Y06497987D03*
X18466994Y06918002D03*
X18550001Y06712008D03*
X18555005Y07318992D03*
X18267985Y07107003D03*
X18193995Y07393998D03*
X18178983Y07088995D03*
X18120995Y07310991D03*
X18064988Y07261994D03*
X18013985Y07204996D03*
X17961000Y07156000D03*
X17915001Y07105987D03*
X17709997Y07358006D03*
Y07289985D03*
X17707991Y07228999D03*
X17926990Y07701998D03*
X17928006Y07777004D03*
X18240985Y07843984D03*
X18293004Y07791000D03*
G54D11*
X18971946Y06385491D02*
X18891936D01*
X18971946Y07924477D02*
X18891936D01*
G54D12*
X16873906Y07319957D02*
X16964076D01*
X16873906Y06999917D02*
X16964076D01*
G54D13*
X16864000Y06599003D03*
Y07648988D03*
X18109006Y07789120D03*
X18388990Y06709493D03*
G54D14*
X18876836Y06385491D03*
X18987046D03*
X18876836Y07924477D03*
X18987046D03*
G54D15*
X16984176Y07319957D03*
X16853806D03*
X16984176Y06999917D03*
X16853806D03*
G54D10*
X16815994Y08846999D03*
X16953992D03*
X16959986Y08541996D03*
X17099001Y08565999D03*
X17118000Y08711007D03*
X17197984Y08833994D03*
X17199991Y08568996D03*
X17202988Y08717002D03*
X17299000Y08382991D03*
X17304004Y08473009D03*
X17307001Y08565008D03*
X18215000Y08806003D03*
X18255005Y08757007D03*
X18296992Y08576006D03*
X18301005Y08674990D03*
X18339994Y08979003D03*
X18388990Y08577987D03*
X18466994Y08998002D03*
X18550001Y08792008D03*
X18555005Y09398992D03*
X18267985Y09187003D03*
X18193995Y09473998D03*
X18178983Y09168995D03*
X18120995Y09390991D03*
X18064988Y09341994D03*
X18013985Y09284996D03*
X17961000Y09236000D03*
X17915001Y09185987D03*
X17709997Y09438006D03*
Y09369985D03*
X17707991Y09308999D03*
X17926990Y09781998D03*
X17928006Y09857004D03*
X18240985Y09923984D03*
X18293004Y09871000D03*
G54D11*
X18971946Y08465491D02*
X18891936D01*
X18971946Y10004477D02*
X18891936D01*
G54D12*
X16873906Y09399957D02*
X16964076D01*
X16873906Y09079917D02*
X16964076D01*
G54D13*
X16864000Y08679003D03*
Y09728988D03*
X18109006Y09869120D03*
X18388990Y08789493D03*
G54D14*
X18876836Y08465491D03*
X18987046D03*
X18876836Y10004477D03*
X18987046D03*
G54D15*
X16984176Y09399957D03*
X16853806D03*
X16984176Y09079917D03*
X16853806D03*
G54D10*
X16815994Y10926999D03*
X16953992D03*
X16959986Y10621996D03*
X17099001Y10645998D03*
X17118000Y10791007D03*
X17197984Y10913994D03*
X17199991Y10648996D03*
X17202988Y10797001D03*
X17299000Y10462991D03*
X17304004Y10553009D03*
X17307001Y10645008D03*
X18215000Y10886003D03*
X18255005Y10837007D03*
X18296992Y10656006D03*
X18301005Y10754990D03*
X18339994Y11059003D03*
X18388990Y10657987D03*
X18466994Y11078002D03*
X18550001Y10872008D03*
X18555005Y11478992D03*
X18267985Y11267003D03*
X18193995Y11553998D03*
X18178983Y11248995D03*
X18120995Y11470991D03*
X18064988Y11421994D03*
X18013985Y11364996D03*
X17961000Y11316000D03*
X17915001Y11265987D03*
X17709997Y11518006D03*
Y11449985D03*
X17707991Y11388999D03*
X17926990Y11861998D03*
X17928006Y11937004D03*
X18240985Y12003984D03*
X18293004Y11951000D03*
G54D11*
X18971946Y10545491D02*
X18891936D01*
X18971946Y12084477D02*
X18891936D01*
G54D12*
X16873906Y11479957D02*
X16964076D01*
X16873906Y11159917D02*
X16964076D01*
G54D13*
X16864000Y10759003D03*
Y11808988D03*
X18109006Y11949120D03*
X18388990Y10869493D03*
G54D14*
X18876836Y10545491D03*
X18987046D03*
X18876836Y12084477D03*
X18987046D03*
G54D15*
X16984176Y11479957D03*
X16853806D03*
X16984176Y11159917D03*
X16853806D03*
G54D16*
X-00499301Y00247753D03*
X19744500Y00248133D03*
Y11978613D03*
G54D17*
X01105254Y-00000001D03*
X01185254D03*
X01265254D03*
X01345254D03*
X01425254D03*
X01106599Y01829993D03*
X01186598D03*
X01266599D03*
X01346598D03*
X01426599D03*
G54D17*
X-00000001Y01076777D03*
G54D17*
Y00996776D03*
G54D17*
Y00916776D03*
G54D17*
Y00836776D03*
G54D17*
Y00756776D03*
G54D17*
X02534996Y01073517D03*
G54D17*
Y00993517D03*
G54D17*
Y00913517D03*
G54D17*
Y00833517D03*
G54D17*
Y00753517D03*
X03890254Y-00000001D03*
X03970254D03*
X04050254D03*
X04130254D03*
X04210254D03*
X03891599Y01829993D03*
X03971598D03*
X04051598D03*
X04131599D03*
X04211599D03*
G54D17*
X02785000Y01076777D03*
G54D17*
Y00996776D03*
G54D17*
Y00916776D03*
G54D17*
Y00836776D03*
G54D17*
Y00756776D03*
G54D17*
X05319996Y01073517D03*
G54D17*
Y00993517D03*
G54D17*
Y00913517D03*
G54D17*
Y00833517D03*
G54D17*
Y00753517D03*
X06675254Y-00000001D03*
X06755254D03*
X06835254D03*
X06915254D03*
X06995254D03*
X06676599Y01829993D03*
X06756599D03*
X06836598D03*
X06916598D03*
X06996598D03*
G54D17*
X05570000Y01076777D03*
G54D17*
Y00996776D03*
G54D17*
Y00916776D03*
G54D17*
Y00836776D03*
G54D17*
Y00756776D03*
G54D17*
X08104996Y01073517D03*
G54D17*
Y00993517D03*
G54D17*
Y00913517D03*
G54D17*
Y00833517D03*
G54D17*
Y00753517D03*
X09460254Y-00000001D03*
X09540254D03*
X09620254D03*
X09700254D03*
X09780254D03*
X09461599Y01829993D03*
X09541599D03*
X09621598D03*
X09701599D03*
X09781599D03*
G54D17*
X08355000Y01076777D03*
G54D17*
Y00996776D03*
G54D17*
Y00916776D03*
G54D17*
Y00836776D03*
G54D17*
Y00756776D03*
G54D17*
X10889996Y01073517D03*
G54D17*
Y00993517D03*
G54D17*
Y00913517D03*
G54D17*
Y00833517D03*
G54D17*
Y00753517D03*
X12245254Y-00000001D03*
X12325254D03*
X12405254D03*
X12485254D03*
X12565254D03*
X12246598Y01829993D03*
X12326598D03*
X12406598D03*
X12486598D03*
X12566599D03*
G54D17*
X11140000Y01076777D03*
G54D17*
Y00996776D03*
G54D17*
Y00916776D03*
G54D17*
Y00836776D03*
G54D17*
Y00756776D03*
G54D17*
X13674996Y01073517D03*
G54D17*
Y00993517D03*
G54D17*
Y00913517D03*
G54D17*
Y00833517D03*
G54D17*
Y00753517D03*
X15030254Y-00000001D03*
X15110254D03*
X15190254D03*
X15270254D03*
X15350254D03*
X15031598Y01829993D03*
X15111599D03*
X15191598D03*
X15271598D03*
X15351599D03*
G54D17*
X13925000Y01076777D03*
G54D17*
Y00996776D03*
G54D17*
Y00916776D03*
G54D17*
Y00836776D03*
G54D17*
Y00756776D03*
G54D17*
X16459996Y01073517D03*
G54D17*
Y00993517D03*
G54D17*
Y00913517D03*
G54D17*
Y00833517D03*
G54D17*
Y00753517D03*
X17815254Y-00000001D03*
X17895254D03*
X17975254D03*
X18055254D03*
X18135254D03*
X17816599Y01829993D03*
X17896599D03*
X17976599D03*
X18056599D03*
X18136599D03*
G54D17*
X16709999Y01076777D03*
G54D17*
Y00996776D03*
G54D17*
Y00916776D03*
G54D17*
Y00836776D03*
G54D17*
Y00756776D03*
G54D17*
X19244996Y01073517D03*
G54D17*
Y00993517D03*
G54D17*
Y00913517D03*
G54D17*
Y00833517D03*
G54D17*
Y00753517D03*
X01105254Y02080000D03*
X01185254D03*
X01265254D03*
X01345254D03*
X01425254D03*
X01106599Y03909993D03*
X01186598D03*
X01266599D03*
X01346598D03*
X01426599D03*
G54D17*
X-00000001Y03156777D03*
G54D17*
Y03076777D03*
G54D17*
Y02996777D03*
G54D17*
Y02916776D03*
G54D17*
Y02836777D03*
G54D17*
X02534996Y03153517D03*
G54D17*
Y03073517D03*
G54D17*
Y02993517D03*
G54D17*
Y02913517D03*
G54D17*
Y02833517D03*
X03890254Y02080000D03*
X03970254D03*
X04050254D03*
X04130254D03*
X04210254D03*
X03891599Y03909993D03*
X03971598D03*
X04051598D03*
X04131599D03*
X04211599D03*
G54D17*
X02785000Y03156777D03*
G54D17*
Y03076777D03*
G54D17*
Y02996777D03*
G54D17*
Y02916776D03*
G54D17*
Y02836777D03*
G54D17*
X05319996Y03153517D03*
G54D17*
Y03073517D03*
G54D17*
Y02993517D03*
G54D17*
Y02913517D03*
G54D17*
Y02833517D03*
X06675254Y02080000D03*
X06755254D03*
X06835254D03*
X06915254D03*
X06995254D03*
X06676599Y03909993D03*
X06756599D03*
X06836598D03*
X06916598D03*
X06996598D03*
G54D17*
X05570000Y03156777D03*
G54D17*
Y03076777D03*
G54D17*
Y02996777D03*
G54D17*
Y02916776D03*
G54D17*
Y02836777D03*
G54D17*
X08104996Y03153517D03*
G54D17*
Y03073517D03*
G54D17*
Y02993517D03*
G54D17*
Y02913517D03*
G54D17*
Y02833517D03*
X09460254Y02080000D03*
X09540254D03*
X09620254D03*
X09700254D03*
X09780254D03*
X09461599Y03909993D03*
X09541599D03*
X09621598D03*
X09701599D03*
X09781599D03*
G54D17*
X08355000Y03156777D03*
G54D17*
Y03076777D03*
G54D17*
Y02996777D03*
G54D17*
Y02916776D03*
G54D17*
Y02836777D03*
G54D17*
X10889996Y03153517D03*
G54D17*
Y03073517D03*
G54D17*
Y02993517D03*
G54D17*
Y02913517D03*
G54D17*
Y02833517D03*
X12245254Y02080000D03*
X12325254D03*
X12405254D03*
X12485254D03*
X12565254D03*
X12246598Y03909993D03*
X12326598D03*
X12406598D03*
X12486598D03*
X12566599D03*
G54D17*
X11140000Y03156777D03*
G54D17*
Y03076777D03*
G54D17*
Y02996777D03*
G54D17*
Y02916776D03*
G54D17*
Y02836777D03*
G54D17*
X13674996Y03153517D03*
G54D17*
Y03073517D03*
G54D17*
Y02993517D03*
G54D17*
Y02913517D03*
G54D17*
Y02833517D03*
X15030254Y02080000D03*
X15110254D03*
X15190254D03*
X15270254D03*
X15350254D03*
X15031598Y03909993D03*
X15111599D03*
X15191598D03*
X15271598D03*
X15351599D03*
G54D17*
X13925000Y03156777D03*
G54D17*
Y03076777D03*
G54D17*
Y02996777D03*
G54D17*
Y02916776D03*
G54D17*
Y02836777D03*
G54D17*
X16459996Y03153517D03*
G54D17*
Y03073517D03*
G54D17*
Y02993517D03*
G54D17*
Y02913517D03*
G54D17*
Y02833517D03*
X17815254Y02080000D03*
X17895254D03*
X17975254D03*
X18055254D03*
X18135254D03*
X17816599Y03909993D03*
X17896599D03*
X17976599D03*
X18056599D03*
X18136599D03*
G54D17*
X16709999Y03156777D03*
G54D17*
Y03076777D03*
G54D17*
Y02996777D03*
G54D17*
Y02916776D03*
G54D17*
Y02836777D03*
G54D17*
X19244996Y03153517D03*
G54D17*
Y03073517D03*
G54D17*
Y02993517D03*
G54D17*
Y02913517D03*
G54D17*
Y02833517D03*
X01105254Y04159999D03*
X01185254D03*
X01265254D03*
X01345254D03*
X01425254D03*
X01106599Y05989993D03*
X01186598D03*
X01266599D03*
X01346598D03*
X01426599D03*
G54D17*
X-00000001Y05236776D03*
G54D17*
Y05156776D03*
G54D17*
Y05076777D03*
G54D17*
Y04996777D03*
G54D17*
Y04916777D03*
G54D17*
X02534996Y05233517D03*
G54D17*
Y05153517D03*
G54D17*
Y05073517D03*
G54D17*
Y04993517D03*
G54D17*
Y04913517D03*
X03890254Y04159999D03*
X03970254D03*
X04050254D03*
X04130254D03*
X04210254D03*
X03891599Y05989993D03*
X03971598D03*
X04051598D03*
X04131599D03*
X04211599D03*
G54D17*
X02785000Y05236776D03*
G54D17*
Y05156776D03*
G54D17*
Y05076777D03*
G54D17*
Y04996777D03*
G54D17*
Y04916777D03*
G54D17*
X05319996Y05233517D03*
G54D17*
Y05153517D03*
G54D17*
Y05073517D03*
G54D17*
Y04993517D03*
G54D17*
Y04913517D03*
X06675254Y04159999D03*
X06755254D03*
X06835254D03*
X06915254D03*
X06995254D03*
X06676599Y05989993D03*
X06756599D03*
X06836598D03*
X06916598D03*
X06996598D03*
G54D17*
X05570000Y05236776D03*
G54D17*
Y05156776D03*
G54D17*
Y05076777D03*
G54D17*
Y04996777D03*
G54D17*
Y04916777D03*
G54D17*
X08104996Y05233517D03*
G54D17*
Y05153517D03*
G54D17*
Y05073517D03*
G54D17*
Y04993517D03*
G54D17*
Y04913517D03*
X09460254Y04159999D03*
X09540254D03*
X09620254D03*
X09700254D03*
X09780254D03*
X09461599Y05989993D03*
X09541599D03*
X09621598D03*
X09701599D03*
X09781599D03*
G54D17*
X08355000Y05236776D03*
G54D17*
Y05156776D03*
G54D17*
Y05076777D03*
G54D17*
Y04996777D03*
G54D17*
Y04916777D03*
G54D17*
X10889996Y05233517D03*
G54D17*
Y05153517D03*
G54D17*
Y05073517D03*
G54D17*
Y04993517D03*
G54D17*
Y04913517D03*
X12245254Y04159999D03*
X12325254D03*
X12405254D03*
X12485254D03*
X12565254D03*
X12246598Y05989993D03*
X12326598D03*
X12406598D03*
X12486598D03*
X12566599D03*
G54D17*
X11140000Y05236776D03*
G54D17*
Y05156776D03*
G54D17*
Y05076777D03*
G54D17*
Y04996777D03*
G54D17*
Y04916777D03*
G54D17*
X13674996Y05233517D03*
G54D17*
Y05153517D03*
G54D17*
Y05073517D03*
G54D17*
Y04993517D03*
G54D17*
Y04913517D03*
X15030254Y04159999D03*
X15110254D03*
X15190254D03*
X15270254D03*
X15350254D03*
X15031598Y05989993D03*
X15111599D03*
X15191598D03*
X15271598D03*
X15351599D03*
G54D17*
X13925000Y05236776D03*
G54D17*
Y05156776D03*
G54D17*
Y05076777D03*
G54D17*
Y04996777D03*
G54D17*
Y04916777D03*
G54D17*
X16459996Y05233517D03*
G54D17*
Y05153517D03*
G54D17*
Y05073517D03*
G54D17*
Y04993517D03*
G54D17*
Y04913517D03*
X17815254Y04159999D03*
X17895254D03*
X17975254D03*
X18055254D03*
X18135254D03*
X17816599Y05989993D03*
X17896599D03*
X17976599D03*
X18056599D03*
X18136599D03*
G54D17*
X16709999Y05236776D03*
G54D17*
Y05156776D03*
G54D17*
Y05076777D03*
G54D17*
Y04996777D03*
G54D17*
Y04916777D03*
G54D17*
X19244996Y05233517D03*
G54D17*
Y05153517D03*
G54D17*
Y05073517D03*
G54D17*
Y04993517D03*
G54D17*
Y04913517D03*
X01105254Y06240000D03*
X01185254D03*
X01265254D03*
X01345254D03*
X01425254D03*
X01106599Y08069993D03*
X01186598D03*
X01266599D03*
X01346598D03*
X01426599D03*
G54D17*
X-00000001Y07316777D03*
G54D17*
Y07236777D03*
G54D17*
Y07156776D03*
G54D17*
Y07076777D03*
G54D17*
Y06996777D03*
G54D17*
X02534996Y07313517D03*
G54D17*
Y07233517D03*
G54D17*
Y07153517D03*
G54D17*
Y07073517D03*
G54D17*
Y06993517D03*
X03890254Y06240000D03*
X03970254D03*
X04050254D03*
X04130254D03*
X04210254D03*
X03891599Y08069993D03*
X03971598D03*
X04051598D03*
X04131599D03*
X04211599D03*
G54D17*
X02785000Y07316777D03*
G54D17*
Y07236777D03*
G54D17*
Y07156776D03*
G54D17*
Y07076777D03*
G54D17*
Y06996777D03*
G54D17*
X05319996Y07313517D03*
G54D17*
Y07233517D03*
G54D17*
Y07153517D03*
G54D17*
Y07073517D03*
G54D17*
Y06993517D03*
X06675254Y06240000D03*
X06755254D03*
X06835254D03*
X06915254D03*
X06995254D03*
X06676599Y08069993D03*
X06756599D03*
X06836598D03*
X06916598D03*
X06996598D03*
G54D17*
X05570000Y07316777D03*
G54D17*
Y07236777D03*
G54D17*
Y07156776D03*
G54D17*
Y07076777D03*
G54D17*
Y06996777D03*
G54D17*
X08104996Y07313517D03*
G54D17*
Y07233517D03*
G54D17*
Y07153517D03*
G54D17*
Y07073517D03*
G54D17*
Y06993517D03*
X09460254Y06240000D03*
X09540254D03*
X09620254D03*
X09700254D03*
X09780254D03*
X09461599Y08069993D03*
X09541599D03*
X09621598D03*
X09701599D03*
X09781599D03*
G54D17*
X08355000Y07316777D03*
G54D17*
Y07236777D03*
G54D17*
Y07156776D03*
G54D17*
Y07076777D03*
G54D17*
Y06996777D03*
G54D17*
X10889996Y07313517D03*
G54D17*
Y07233517D03*
G54D17*
Y07153517D03*
G54D17*
Y07073517D03*
G54D17*
Y06993517D03*
X12245254Y06240000D03*
X12325254D03*
X12405254D03*
X12485254D03*
X12565254D03*
X12246598Y08069993D03*
X12326598D03*
X12406598D03*
X12486598D03*
X12566599D03*
G54D17*
X11140000Y07316777D03*
G54D17*
Y07236777D03*
G54D17*
Y07156776D03*
G54D17*
Y07076777D03*
G54D17*
Y06996777D03*
G54D17*
X13674996Y07313517D03*
G54D17*
Y07233517D03*
G54D17*
Y07153517D03*
G54D17*
Y07073517D03*
G54D17*
Y06993517D03*
X15030254Y06240000D03*
X15110254D03*
X15190254D03*
X15270254D03*
X15350254D03*
X15031598Y08069993D03*
X15111599D03*
X15191598D03*
X15271598D03*
X15351599D03*
G54D17*
X13925000Y07316777D03*
G54D17*
Y07236777D03*
G54D17*
Y07156776D03*
G54D17*
Y07076777D03*
G54D17*
Y06996777D03*
G54D17*
X16459996Y07313517D03*
G54D17*
Y07233517D03*
G54D17*
Y07153517D03*
G54D17*
Y07073517D03*
G54D17*
Y06993517D03*
X17815254Y06240000D03*
X17895254D03*
X17975254D03*
X18055254D03*
X18135254D03*
X17816599Y08069993D03*
X17896599D03*
X17976599D03*
X18056599D03*
X18136599D03*
G54D17*
X16709999Y07316777D03*
G54D17*
Y07236777D03*
G54D17*
Y07156776D03*
G54D17*
Y07076777D03*
G54D17*
Y06996777D03*
G54D17*
X19244996Y07313517D03*
G54D17*
Y07233517D03*
G54D17*
Y07153517D03*
G54D17*
Y07073517D03*
G54D17*
Y06993517D03*
X01105254Y08319999D03*
X01185254D03*
X01265254D03*
X01345254D03*
X01425254D03*
X01106599Y10149993D03*
X01186598D03*
X01266599D03*
X01346598D03*
X01426599D03*
G54D17*
X-00000001Y09396777D03*
G54D17*
Y09316777D03*
G54D17*
Y09236777D03*
G54D17*
Y09156777D03*
G54D17*
Y09076777D03*
G54D17*
X02534996Y09393517D03*
G54D17*
Y09313517D03*
G54D17*
Y09233517D03*
G54D17*
Y09153517D03*
G54D17*
Y09073517D03*
X03890254Y08319999D03*
X03970254D03*
X04050254D03*
X04130254D03*
X04210254D03*
X03891599Y10149993D03*
X03971598D03*
X04051598D03*
X04131599D03*
X04211599D03*
G54D17*
X02785000Y09396777D03*
G54D17*
Y09316777D03*
G54D17*
Y09236777D03*
G54D17*
Y09156777D03*
G54D17*
Y09076777D03*
G54D17*
X05319996Y09393517D03*
G54D17*
Y09313517D03*
G54D17*
Y09233517D03*
G54D17*
Y09153517D03*
G54D17*
Y09073517D03*
X06675254Y08319999D03*
X06755254D03*
X06835254D03*
X06915254D03*
X06995254D03*
X06676599Y10149993D03*
X06756599D03*
X06836598D03*
X06916598D03*
X06996598D03*
G54D17*
X05570000Y09396777D03*
G54D17*
Y09316777D03*
G54D17*
Y09236777D03*
G54D17*
Y09156777D03*
G54D17*
Y09076777D03*
G54D17*
X08104996Y09393517D03*
G54D17*
Y09313517D03*
G54D17*
Y09233517D03*
G54D17*
Y09153517D03*
G54D17*
Y09073517D03*
X09460254Y08319999D03*
X09540254D03*
X09620254D03*
X09700254D03*
X09780254D03*
X09461599Y10149993D03*
X09541599D03*
X09621598D03*
X09701599D03*
X09781599D03*
G54D17*
X08355000Y09396777D03*
G54D17*
Y09316777D03*
G54D17*
Y09236777D03*
G54D17*
Y09156777D03*
G54D17*
Y09076777D03*
G54D17*
X10889996Y09393517D03*
G54D17*
Y09313517D03*
G54D17*
Y09233517D03*
G54D17*
Y09153517D03*
G54D17*
Y09073517D03*
X12245254Y08319999D03*
X12325254D03*
X12405254D03*
X12485254D03*
X12565254D03*
X12246598Y10149993D03*
X12326598D03*
X12406598D03*
X12486598D03*
X12566599D03*
G54D17*
X11140000Y09396777D03*
G54D17*
Y09316777D03*
G54D17*
Y09236777D03*
G54D17*
Y09156777D03*
G54D17*
Y09076777D03*
G54D17*
X13674996Y09393517D03*
G54D17*
Y09313517D03*
G54D17*
Y09233517D03*
G54D17*
Y09153517D03*
G54D17*
Y09073517D03*
X15030254Y08319999D03*
X15110254D03*
X15190254D03*
X15270254D03*
X15350254D03*
X15031598Y10149993D03*
X15111599D03*
X15191598D03*
X15271598D03*
X15351599D03*
G54D17*
X13925000Y09396777D03*
G54D17*
Y09316777D03*
G54D17*
Y09236777D03*
G54D17*
Y09156777D03*
G54D17*
Y09076777D03*
G54D17*
X16459996Y09393517D03*
G54D17*
Y09313517D03*
G54D17*
Y09233517D03*
G54D17*
Y09153517D03*
G54D17*
Y09073517D03*
X17815254Y08319999D03*
X17895254D03*
X17975254D03*
X18055254D03*
X18135254D03*
X17816599Y10149993D03*
X17896599D03*
X17976599D03*
X18056599D03*
X18136599D03*
G54D17*
X16709999Y09396777D03*
G54D17*
Y09316777D03*
G54D17*
Y09236777D03*
G54D17*
Y09156777D03*
G54D17*
Y09076777D03*
G54D17*
X19244996Y09393517D03*
G54D17*
Y09313517D03*
G54D17*
Y09233517D03*
G54D17*
Y09153517D03*
G54D17*
Y09073517D03*
X01105254Y10399999D03*
X01185254D03*
X01265254D03*
X01345254D03*
X01425254D03*
X01106599Y12229993D03*
X01186598D03*
X01266599D03*
X01346598D03*
X01426599D03*
G54D17*
X-00000001Y11476777D03*
G54D17*
Y11396777D03*
G54D17*
Y11316777D03*
G54D17*
Y11236777D03*
G54D17*
Y11156776D03*
G54D17*
X02534996Y11473517D03*
G54D17*
Y11393517D03*
G54D17*
Y11313517D03*
G54D17*
Y11233517D03*
G54D17*
Y11153517D03*
X03890254Y10399999D03*
X03970254D03*
X04050254D03*
X04130254D03*
X04210254D03*
X03891599Y12229993D03*
X03971598D03*
X04051598D03*
X04131599D03*
X04211599D03*
G54D17*
X02785000Y11476777D03*
G54D17*
Y11396777D03*
G54D17*
Y11316777D03*
G54D17*
Y11236777D03*
G54D17*
Y11156776D03*
G54D17*
X05319996Y11473517D03*
G54D17*
Y11393517D03*
G54D17*
Y11313517D03*
G54D17*
Y11233517D03*
G54D17*
Y11153517D03*
X06675254Y10399999D03*
X06755254D03*
X06835254D03*
X06915254D03*
X06995254D03*
X06676599Y12229993D03*
X06756599D03*
X06836598D03*
X06916598D03*
X06996598D03*
G54D17*
X05570000Y11476777D03*
G54D17*
Y11396777D03*
G54D17*
Y11316777D03*
G54D17*
Y11236777D03*
G54D17*
Y11156776D03*
G54D17*
X08104996Y11473517D03*
G54D17*
Y11393517D03*
G54D17*
Y11313517D03*
G54D17*
Y11233517D03*
G54D17*
Y11153517D03*
X09460254Y10399999D03*
X09540254D03*
X09620254D03*
X09700254D03*
X09780254D03*
X09461599Y12229993D03*
X09541599D03*
X09621598D03*
X09701599D03*
X09781599D03*
G54D17*
X08355000Y11476777D03*
G54D17*
Y11396777D03*
G54D17*
Y11316777D03*
G54D17*
Y11236777D03*
G54D17*
Y11156776D03*
G54D17*
X10889996Y11473517D03*
G54D17*
Y11393517D03*
G54D17*
Y11313517D03*
G54D17*
Y11233517D03*
G54D17*
Y11153517D03*
X12245254Y10399999D03*
X12325254D03*
X12405254D03*
X12485254D03*
X12565254D03*
X12246598Y12229993D03*
X12326598D03*
X12406598D03*
X12486598D03*
X12566599D03*
G54D17*
X11140000Y11476777D03*
G54D17*
Y11396777D03*
G54D17*
Y11316777D03*
G54D17*
Y11236777D03*
G54D17*
Y11156776D03*
G54D17*
X13674996Y11473517D03*
G54D17*
Y11393517D03*
G54D17*
Y11313517D03*
G54D17*
Y11233517D03*
G54D17*
Y11153517D03*
X15030254Y10399999D03*
X15110254D03*
X15190254D03*
X15270254D03*
X15350254D03*
X15031598Y12229993D03*
X15111599D03*
X15191598D03*
X15271598D03*
X15351599D03*
G54D17*
X13925000Y11476777D03*
G54D17*
Y11396777D03*
G54D17*
Y11316777D03*
G54D17*
Y11236777D03*
G54D17*
Y11156776D03*
G54D17*
X16459996Y11473517D03*
G54D17*
Y11393517D03*
G54D17*
Y11313517D03*
G54D17*
Y11233517D03*
G54D17*
Y11153517D03*
X17815254Y10399999D03*
X17895254D03*
X17975254D03*
X18055254D03*
X18135254D03*
X17816599Y12229993D03*
X17896599D03*
X17976599D03*
X18056599D03*
X18136599D03*
G54D17*
X16709999Y11476777D03*
G54D17*
Y11396777D03*
G54D17*
Y11316777D03*
G54D17*
Y11236777D03*
G54D17*
Y11156776D03*
G54D17*
X19244996Y11473517D03*
G54D17*
Y11393517D03*
G54D17*
Y11313517D03*
G54D17*
Y11233517D03*
G54D17*
Y11153517D03*
M02*
