*
%FSLAX35Y35*%
%MOMM*%
%ADD10C,0.150000*%
%ADD11C,2.550000*%
%IPPOS*%
%LN2697ay02f009566a0.gko*%
%LPD*%
G75*
G54D10*
X-00000001Y00257378D02*
Y01515973D01*
X00029997Y01567916D02*
X00020075Y01560746D01*
X00011815Y01551711D01*
X00005561Y01541187D01*
X00001573Y01529613D01*
X00000018Y01517471D01*
X-00000001Y01515973D01*
X00029997Y01567916D02*
X00470001Y01821967D01*
X00499998Y01829993D02*
X00487819Y01828748D01*
X00476146Y01825056D01*
X00470001Y01821967D01*
X00499998Y01829993D02*
X02510586D01*
X02534996Y01792071D02*
X02534337Y01801801D01*
X02531233Y01811045D01*
X02525886Y01819201D01*
X02518646Y01825734D01*
X02510586Y01829993D01*
X02534996Y01792071D02*
Y00037515D01*
X02511374Y-00000001D02*
X02519850Y00004807D01*
X02526829Y00011608D01*
X02531853Y00019958D01*
X02534595Y00029309D01*
X02534996Y00037515D01*
X02511348Y-00000001D02*
X00541375D01*
X00491388Y00049987D02*
X00492636Y00038886D01*
X00496318Y00028339D01*
X00502251Y00018874D01*
X00510137Y00010962D01*
X00519584Y00005000D01*
X00530119Y00001284D01*
X00541215Y-00000000D01*
X00541375Y-00000001D01*
X00491388Y00049987D02*
Y00107365D01*
X00490140Y00118469D01*
X00486457Y00129019D01*
X00480525Y00138488D01*
X00472638Y00146403D01*
X00463191Y00152369D01*
X00452654Y00156090D01*
X00441555Y00157378D01*
X00441375Y00157378D01*
X00099999D01*
X-00000001Y00257378D02*
X00001250Y00241611D01*
X00004971Y00226238D01*
X00011070Y00211644D01*
X00019393Y00198195D01*
X00029733Y00186226D01*
X00041830Y00176037D01*
X00055383Y00167883D01*
X00070052Y00161968D01*
X00085470Y00158439D01*
X00099999Y00157378D01*
X-00000001Y02337378D02*
Y03595973D01*
X00029997Y03647916D02*
X00020075Y03640746D01*
X00011815Y03631711D01*
X00005561Y03621188D01*
X00001573Y03609613D01*
X00000018Y03597471D01*
X-00000001Y03595973D01*
X00029997Y03647916D02*
X00470001Y03901967D01*
X00499998Y03909993D02*
X00487819Y03908748D01*
X00476146Y03905056D01*
X00470001Y03901967D01*
X00499998Y03909993D02*
X02510586D01*
X02534996Y03872071D02*
X02534337Y03881801D01*
X02531233Y03891045D01*
X02525886Y03899201D01*
X02518646Y03905734D01*
X02510586Y03909993D01*
X02534996Y03872071D02*
Y02117515D01*
X02511374Y02080000D02*
X02519850Y02084807D01*
X02526829Y02091608D01*
X02531853Y02099958D01*
X02534595Y02109309D01*
X02534996Y02117515D01*
X02511348Y02080000D02*
X00541375D01*
X00491388Y02129987D02*
X00492636Y02118886D01*
X00496318Y02108339D01*
X00502251Y02098874D01*
X00510137Y02090962D01*
X00519584Y02085000D01*
X00530119Y02081283D01*
X00541215Y02080000D01*
X00541375Y02080000D01*
X00491388Y02129987D02*
Y02187365D01*
X00490140Y02198469D01*
X00486457Y02209019D01*
X00480525Y02218488D01*
X00472638Y02226403D01*
X00463191Y02232369D01*
X00452654Y02236090D01*
X00441555Y02237378D01*
X00441375Y02237378D01*
X00099999D01*
X-00000001Y02337378D02*
X00001250Y02321611D01*
X00004971Y02306238D01*
X00011070Y02291644D01*
X00019393Y02278195D01*
X00029733Y02266226D01*
X00041830Y02256037D01*
X00055383Y02247883D01*
X00070052Y02241968D01*
X00085470Y02238439D01*
X00099999Y02237378D01*
X-00000001Y04417378D02*
Y05675973D01*
X00029997Y05727916D02*
X00020075Y05720746D01*
X00011815Y05711711D01*
X00005561Y05701188D01*
X00001573Y05689613D01*
X00000018Y05677471D01*
X-00000001Y05675973D01*
X00029997Y05727916D02*
X00470001Y05981967D01*
X00499998Y05989993D02*
X00487819Y05988748D01*
X00476146Y05985056D01*
X00470001Y05981967D01*
X00499998Y05989993D02*
X02510586D01*
X02534996Y05952071D02*
X02534337Y05961801D01*
X02531233Y05971045D01*
X02525886Y05979201D01*
X02518646Y05985734D01*
X02510586Y05989993D01*
X02534996Y05952071D02*
Y04197515D01*
X02511374Y04159999D02*
X02519850Y04164807D01*
X02526829Y04171608D01*
X02531853Y04179957D01*
X02534595Y04189308D01*
X02534996Y04197515D01*
X02511348Y04159999D02*
X00541375D01*
X00491388Y04209987D02*
X00492636Y04198886D01*
X00496318Y04188339D01*
X00502251Y04178874D01*
X00510137Y04170962D01*
X00519584Y04164999D01*
X00530119Y04161283D01*
X00541215Y04160000D01*
X00541375Y04159999D01*
X00491388Y04209987D02*
Y04267365D01*
X00490140Y04278469D01*
X00486457Y04289019D01*
X00480525Y04298488D01*
X00472638Y04306403D01*
X00463191Y04312369D01*
X00452654Y04316090D01*
X00441555Y04317378D01*
X00441375Y04317378D01*
X00099999D01*
X-00000001Y04417378D02*
X00001250Y04401611D01*
X00004971Y04386238D01*
X00011070Y04371644D01*
X00019393Y04358195D01*
X00029733Y04346226D01*
X00041830Y04336037D01*
X00055383Y04327883D01*
X00070052Y04321968D01*
X00085470Y04318439D01*
X00099999Y04317378D01*
X-00000001Y06497378D02*
Y07755973D01*
X00029997Y07807916D02*
X00020075Y07800746D01*
X00011815Y07791711D01*
X00005561Y07781188D01*
X00001573Y07769613D01*
X00000018Y07757470D01*
X-00000001Y07755973D01*
X00029997Y07807916D02*
X00470001Y08061967D01*
X00499998Y08069993D02*
X00487819Y08068748D01*
X00476146Y08065056D01*
X00470001Y08061967D01*
X00499998Y08069993D02*
X02510586D01*
X02534996Y08032071D02*
X02534337Y08041801D01*
X02531233Y08051045D01*
X02525886Y08059201D01*
X02518646Y08065734D01*
X02510586Y08069993D01*
X02534996Y08032071D02*
Y06277515D01*
X02511374Y06240000D02*
X02519850Y06244807D01*
X02526829Y06251608D01*
X02531853Y06259958D01*
X02534595Y06269309D01*
X02534996Y06277515D01*
X02511348Y06240000D02*
X00541375D01*
X00491388Y06289987D02*
X00492636Y06278886D01*
X00496318Y06268339D01*
X00502251Y06258874D01*
X00510137Y06250962D01*
X00519584Y06244999D01*
X00530119Y06241284D01*
X00541215Y06240000D01*
X00541375Y06240000D01*
X00491388Y06289987D02*
Y06347365D01*
X00490140Y06358469D01*
X00486457Y06369019D01*
X00480525Y06378488D01*
X00472638Y06386403D01*
X00463191Y06392369D01*
X00452654Y06396090D01*
X00441555Y06397378D01*
X00441375Y06397378D01*
X00099999D01*
X-00000001Y06497378D02*
X00001250Y06481611D01*
X00004971Y06466238D01*
X00011070Y06451644D01*
X00019393Y06438195D01*
X00029733Y06426226D01*
X00041830Y06416037D01*
X00055383Y06407883D01*
X00070052Y06401968D01*
X00085470Y06398439D01*
X00099999Y06397378D01*
X-00000001Y08577378D02*
Y09835973D01*
X00029997Y09887916D02*
X00020075Y09880746D01*
X00011815Y09871711D01*
X00005561Y09861187D01*
X00001573Y09849613D01*
X00000018Y09837471D01*
X-00000001Y09835973D01*
X00029997Y09887916D02*
X00470001Y10141967D01*
X00499998Y10149993D02*
X00487819Y10148748D01*
X00476146Y10145056D01*
X00470001Y10141967D01*
X00499998Y10149993D02*
X02510586D01*
X02534996Y10112071D02*
X02534337Y10121801D01*
X02531233Y10131045D01*
X02525886Y10139201D01*
X02518646Y10145734D01*
X02510586Y10149993D01*
X02534996Y10112071D02*
Y08357515D01*
X02511374Y08319999D02*
X02519850Y08324807D01*
X02526829Y08331608D01*
X02531853Y08339958D01*
X02534595Y08349308D01*
X02534996Y08357515D01*
X02511348Y08319999D02*
X00541375D01*
X00491388Y08369987D02*
X00492636Y08358886D01*
X00496318Y08348339D01*
X00502251Y08338874D01*
X00510137Y08330962D01*
X00519584Y08325000D01*
X00530119Y08321284D01*
X00541215Y08320000D01*
X00541375Y08319999D01*
X00491388Y08369987D02*
Y08427365D01*
X00490140Y08438469D01*
X00486457Y08449019D01*
X00480525Y08458488D01*
X00472638Y08466403D01*
X00463191Y08472369D01*
X00452654Y08476090D01*
X00441555Y08477378D01*
X00441375Y08477378D01*
X00099999D01*
X-00000001Y08577378D02*
X00001250Y08561611D01*
X00004971Y08546238D01*
X00011070Y08531645D01*
X00019393Y08518195D01*
X00029733Y08506226D01*
X00041830Y08496037D01*
X00055383Y08487883D01*
X00070052Y08481968D01*
X00085470Y08478439D01*
X00099999Y08477378D01*
X-00000001Y10657378D02*
Y11915973D01*
X00029997Y11967916D02*
X00020075Y11960746D01*
X00011815Y11951711D01*
X00005561Y11941187D01*
X00001573Y11929613D01*
X00000018Y11917470D01*
X-00000001Y11915973D01*
X00029997Y11967916D02*
X00470001Y12221967D01*
X00499998Y12229993D02*
X00487819Y12228748D01*
X00476146Y12225056D01*
X00470001Y12221967D01*
X00499998Y12229993D02*
X02510586D01*
X02534996Y12192071D02*
X02534337Y12201801D01*
X02531233Y12211045D01*
X02525886Y12219201D01*
X02518646Y12225734D01*
X02510586Y12229993D01*
X02534996Y12192071D02*
Y10437515D01*
X02511374Y10399999D02*
X02519850Y10404807D01*
X02526829Y10411608D01*
X02531853Y10419958D01*
X02534595Y10429309D01*
X02534996Y10437515D01*
X02511348Y10399999D02*
X00541375D01*
X00491388Y10449987D02*
X00492636Y10438886D01*
X00496318Y10428339D01*
X00502251Y10418874D01*
X00510137Y10410962D01*
X00519584Y10405000D01*
X00530119Y10401284D01*
X00541215Y10400000D01*
X00541375Y10399999D01*
X00491388Y10449987D02*
Y10507365D01*
X00490140Y10518469D01*
X00486457Y10529019D01*
X00480525Y10538488D01*
X00472638Y10546403D01*
X00463191Y10552369D01*
X00452654Y10556090D01*
X00441555Y10557378D01*
X00441375Y10557378D01*
X00099999D01*
X-00000001Y10657378D02*
X00001250Y10641611D01*
X00004971Y10626238D01*
X00011070Y10611645D01*
X00019393Y10598195D01*
X00029733Y10586226D01*
X00041830Y10576037D01*
X00055383Y10567883D01*
X00070052Y10561968D01*
X00085470Y10558439D01*
X00099999Y10557378D01*
X02785000Y00257378D02*
Y01515973D01*
X02814997Y01567916D02*
X02805075Y01560746D01*
X02796815Y01551711D01*
X02790561Y01541187D01*
X02786573Y01529613D01*
X02785018Y01517471D01*
X02785000Y01515973D01*
X02814997Y01567916D02*
X03255001Y01821967D01*
X03284998Y01829993D02*
X03272819Y01828748D01*
X03261146Y01825056D01*
X03255001Y01821967D01*
X03284998Y01829993D02*
X05295586D01*
X05319996Y01792071D02*
X05319337Y01801801D01*
X05316233Y01811045D01*
X05310886Y01819201D01*
X05303646Y01825734D01*
X05295586Y01829993D01*
X05319996Y01792071D02*
Y00037515D01*
X05296374Y-00000001D02*
X05304850Y00004807D01*
X05311829Y00011608D01*
X05316853Y00019958D01*
X05319595Y00029309D01*
X05319996Y00037515D01*
X05296348Y-00000001D02*
X03326375D01*
X03276388Y00049987D02*
X03277636Y00038886D01*
X03281318Y00028339D01*
X03287251Y00018874D01*
X03295137Y00010962D01*
X03304584Y00005000D01*
X03315119Y00001284D01*
X03326215Y-00000000D01*
X03326375Y-00000001D01*
X03276388Y00049987D02*
Y00107365D01*
X03275140Y00118469D01*
X03271457Y00129019D01*
X03265525Y00138488D01*
X03257638Y00146403D01*
X03248191Y00152369D01*
X03237655Y00156090D01*
X03226555Y00157378D01*
X03226375Y00157378D01*
X02884999D01*
X02785000Y00257378D02*
X02786250Y00241611D01*
X02789972Y00226238D01*
X02796070Y00211644D01*
X02804393Y00198195D01*
X02814733Y00186226D01*
X02826830Y00176037D01*
X02840383Y00167883D01*
X02855051Y00161968D01*
X02870470Y00158439D01*
X02884999Y00157378D01*
X02785000Y02337378D02*
Y03595973D01*
X02814997Y03647916D02*
X02805075Y03640746D01*
X02796815Y03631711D01*
X02790561Y03621188D01*
X02786573Y03609613D01*
X02785018Y03597471D01*
X02785000Y03595973D01*
X02814997Y03647916D02*
X03255001Y03901967D01*
X03284998Y03909993D02*
X03272819Y03908748D01*
X03261146Y03905056D01*
X03255001Y03901967D01*
X03284998Y03909993D02*
X05295586D01*
X05319996Y03872071D02*
X05319337Y03881801D01*
X05316233Y03891045D01*
X05310886Y03899201D01*
X05303646Y03905734D01*
X05295586Y03909993D01*
X05319996Y03872071D02*
Y02117515D01*
X05296374Y02080000D02*
X05304850Y02084807D01*
X05311829Y02091608D01*
X05316853Y02099958D01*
X05319595Y02109309D01*
X05319996Y02117515D01*
X05296348Y02080000D02*
X03326375D01*
X03276388Y02129987D02*
X03277636Y02118886D01*
X03281318Y02108339D01*
X03287251Y02098874D01*
X03295137Y02090962D01*
X03304584Y02085000D01*
X03315119Y02081283D01*
X03326215Y02080000D01*
X03326375Y02080000D01*
X03276388Y02129987D02*
Y02187365D01*
X03275140Y02198469D01*
X03271457Y02209019D01*
X03265525Y02218488D01*
X03257638Y02226403D01*
X03248191Y02232369D01*
X03237655Y02236090D01*
X03226555Y02237378D01*
X03226375Y02237378D01*
X02884999D01*
X02785000Y02337378D02*
X02786250Y02321611D01*
X02789972Y02306238D01*
X02796070Y02291644D01*
X02804393Y02278195D01*
X02814733Y02266226D01*
X02826830Y02256037D01*
X02840383Y02247883D01*
X02855051Y02241968D01*
X02870470Y02238439D01*
X02884999Y02237378D01*
X02785000Y04417378D02*
Y05675973D01*
X02814997Y05727916D02*
X02805075Y05720746D01*
X02796815Y05711711D01*
X02790561Y05701188D01*
X02786573Y05689613D01*
X02785018Y05677471D01*
X02785000Y05675973D01*
X02814997Y05727916D02*
X03255001Y05981967D01*
X03284998Y05989993D02*
X03272819Y05988748D01*
X03261146Y05985056D01*
X03255001Y05981967D01*
X03284998Y05989993D02*
X05295586D01*
X05319996Y05952071D02*
X05319337Y05961801D01*
X05316233Y05971045D01*
X05310886Y05979201D01*
X05303646Y05985734D01*
X05295586Y05989993D01*
X05319996Y05952071D02*
Y04197515D01*
X05296374Y04159999D02*
X05304850Y04164807D01*
X05311829Y04171608D01*
X05316853Y04179957D01*
X05319595Y04189308D01*
X05319996Y04197515D01*
X05296348Y04159999D02*
X03326375D01*
X03276388Y04209987D02*
X03277636Y04198886D01*
X03281318Y04188339D01*
X03287251Y04178874D01*
X03295137Y04170962D01*
X03304584Y04164999D01*
X03315119Y04161283D01*
X03326215Y04160000D01*
X03326375Y04159999D01*
X03276388Y04209987D02*
Y04267365D01*
X03275140Y04278469D01*
X03271457Y04289019D01*
X03265525Y04298488D01*
X03257638Y04306403D01*
X03248191Y04312369D01*
X03237655Y04316090D01*
X03226555Y04317378D01*
X03226375Y04317378D01*
X02884999D01*
X02785000Y04417378D02*
X02786250Y04401611D01*
X02789972Y04386238D01*
X02796070Y04371644D01*
X02804393Y04358195D01*
X02814733Y04346226D01*
X02826830Y04336037D01*
X02840383Y04327883D01*
X02855051Y04321968D01*
X02870470Y04318439D01*
X02884999Y04317378D01*
X02785000Y06497378D02*
Y07755973D01*
X02814997Y07807916D02*
X02805075Y07800746D01*
X02796815Y07791711D01*
X02790561Y07781188D01*
X02786573Y07769613D01*
X02785018Y07757470D01*
X02785000Y07755973D01*
X02814997Y07807916D02*
X03255001Y08061967D01*
X03284998Y08069993D02*
X03272819Y08068748D01*
X03261146Y08065056D01*
X03255001Y08061967D01*
X03284998Y08069993D02*
X05295586D01*
X05319996Y08032071D02*
X05319337Y08041801D01*
X05316233Y08051045D01*
X05310886Y08059201D01*
X05303646Y08065734D01*
X05295586Y08069993D01*
X05319996Y08032071D02*
Y06277515D01*
X05296374Y06240000D02*
X05304850Y06244807D01*
X05311829Y06251608D01*
X05316853Y06259958D01*
X05319595Y06269309D01*
X05319996Y06277515D01*
X05296348Y06240000D02*
X03326375D01*
X03276388Y06289987D02*
X03277636Y06278886D01*
X03281318Y06268339D01*
X03287251Y06258874D01*
X03295137Y06250962D01*
X03304584Y06244999D01*
X03315119Y06241284D01*
X03326215Y06240000D01*
X03326375Y06240000D01*
X03276388Y06289987D02*
Y06347365D01*
X03275140Y06358469D01*
X03271457Y06369019D01*
X03265525Y06378488D01*
X03257638Y06386403D01*
X03248191Y06392369D01*
X03237655Y06396090D01*
X03226555Y06397378D01*
X03226375Y06397378D01*
X02884999D01*
X02785000Y06497378D02*
X02786250Y06481611D01*
X02789972Y06466238D01*
X02796070Y06451644D01*
X02804393Y06438195D01*
X02814733Y06426226D01*
X02826830Y06416037D01*
X02840383Y06407883D01*
X02855051Y06401968D01*
X02870470Y06398439D01*
X02884999Y06397378D01*
X02785000Y08577378D02*
Y09835973D01*
X02814997Y09887916D02*
X02805075Y09880746D01*
X02796815Y09871711D01*
X02790561Y09861187D01*
X02786573Y09849613D01*
X02785018Y09837471D01*
X02785000Y09835973D01*
X02814997Y09887916D02*
X03255001Y10141967D01*
X03284998Y10149993D02*
X03272819Y10148748D01*
X03261146Y10145056D01*
X03255001Y10141967D01*
X03284998Y10149993D02*
X05295586D01*
X05319996Y10112071D02*
X05319337Y10121801D01*
X05316233Y10131045D01*
X05310886Y10139201D01*
X05303646Y10145734D01*
X05295586Y10149993D01*
X05319996Y10112071D02*
Y08357515D01*
X05296374Y08319999D02*
X05304850Y08324807D01*
X05311829Y08331608D01*
X05316853Y08339958D01*
X05319595Y08349308D01*
X05319996Y08357515D01*
X05296348Y08319999D02*
X03326375D01*
X03276388Y08369987D02*
X03277636Y08358886D01*
X03281318Y08348339D01*
X03287251Y08338874D01*
X03295137Y08330962D01*
X03304584Y08325000D01*
X03315119Y08321284D01*
X03326215Y08320000D01*
X03326375Y08319999D01*
X03276388Y08369987D02*
Y08427365D01*
X03275140Y08438469D01*
X03271457Y08449019D01*
X03265525Y08458488D01*
X03257638Y08466403D01*
X03248191Y08472369D01*
X03237655Y08476090D01*
X03226555Y08477378D01*
X03226375Y08477378D01*
X02884999D01*
X02785000Y08577378D02*
X02786250Y08561611D01*
X02789972Y08546238D01*
X02796070Y08531645D01*
X02804393Y08518195D01*
X02814733Y08506226D01*
X02826830Y08496037D01*
X02840383Y08487883D01*
X02855051Y08481968D01*
X02870470Y08478439D01*
X02884999Y08477378D01*
X02785000Y10657378D02*
Y11915973D01*
X02814997Y11967916D02*
X02805075Y11960746D01*
X02796815Y11951711D01*
X02790561Y11941187D01*
X02786573Y11929613D01*
X02785018Y11917470D01*
X02785000Y11915973D01*
X02814997Y11967916D02*
X03255001Y12221967D01*
X03284998Y12229993D02*
X03272819Y12228748D01*
X03261146Y12225056D01*
X03255001Y12221967D01*
X03284998Y12229993D02*
X05295586D01*
X05319996Y12192071D02*
X05319337Y12201801D01*
X05316233Y12211045D01*
X05310886Y12219201D01*
X05303646Y12225734D01*
X05295586Y12229993D01*
X05319996Y12192071D02*
Y10437515D01*
X05296374Y10399999D02*
X05304850Y10404807D01*
X05311829Y10411608D01*
X05316853Y10419958D01*
X05319595Y10429309D01*
X05319996Y10437515D01*
X05296348Y10399999D02*
X03326375D01*
X03276388Y10449987D02*
X03277636Y10438886D01*
X03281318Y10428339D01*
X03287251Y10418874D01*
X03295137Y10410962D01*
X03304584Y10405000D01*
X03315119Y10401284D01*
X03326215Y10400000D01*
X03326375Y10399999D01*
X03276388Y10449987D02*
Y10507365D01*
X03275140Y10518469D01*
X03271457Y10529019D01*
X03265525Y10538488D01*
X03257638Y10546403D01*
X03248191Y10552369D01*
X03237655Y10556090D01*
X03226555Y10557378D01*
X03226375Y10557378D01*
X02884999D01*
X02785000Y10657378D02*
X02786250Y10641611D01*
X02789972Y10626238D01*
X02796070Y10611645D01*
X02804393Y10598195D01*
X02814733Y10586226D01*
X02826830Y10576037D01*
X02840383Y10567883D01*
X02855051Y10561968D01*
X02870470Y10558439D01*
X02884999Y10557378D01*
X05570000Y00257378D02*
Y01515973D01*
X05599997Y01567916D02*
X05590075Y01560746D01*
X05581815Y01551711D01*
X05575561Y01541187D01*
X05571573Y01529613D01*
X05570019Y01517471D01*
X05570000Y01515973D01*
X05599997Y01567916D02*
X06040001Y01821967D01*
X06069999Y01829993D02*
X06057819Y01828748D01*
X06046146Y01825056D01*
X06040001Y01821967D01*
X06069999Y01829993D02*
X08080586D01*
X08104996Y01792071D02*
X08104337Y01801801D01*
X08101233Y01811045D01*
X08095886Y01819201D01*
X08088646Y01825734D01*
X08080586Y01829993D01*
X08104996Y01792071D02*
Y00037515D01*
X08081374Y-00000001D02*
X08089850Y00004807D01*
X08096828Y00011608D01*
X08101853Y00019958D01*
X08104595Y00029309D01*
X08104996Y00037515D01*
X08081348Y-00000001D02*
X06111375D01*
X06061388Y00049987D02*
X06062636Y00038886D01*
X06066319Y00028339D01*
X06072251Y00018874D01*
X06080137Y00010962D01*
X06089584Y00005000D01*
X06100118Y00001284D01*
X06111216Y-00000000D01*
X06111375Y-00000001D01*
X06061388Y00049987D02*
Y00107365D01*
X06060140Y00118469D01*
X06056457Y00129019D01*
X06050525Y00138488D01*
X06042638Y00146403D01*
X06033191Y00152369D01*
X06022655Y00156090D01*
X06011555Y00157378D01*
X06011375Y00157378D01*
X05669999D01*
X05570000Y00257378D02*
X05571250Y00241611D01*
X05574972Y00226238D01*
X05581070Y00211644D01*
X05589393Y00198195D01*
X05599733Y00186226D01*
X05611830Y00176037D01*
X05625383Y00167883D01*
X05640051Y00161968D01*
X05655470Y00158439D01*
X05669999Y00157378D01*
X05570000Y02337378D02*
Y03595973D01*
X05599997Y03647916D02*
X05590075Y03640746D01*
X05581815Y03631711D01*
X05575561Y03621188D01*
X05571573Y03609613D01*
X05570019Y03597471D01*
X05570000Y03595973D01*
X05599997Y03647916D02*
X06040001Y03901967D01*
X06069999Y03909993D02*
X06057819Y03908748D01*
X06046146Y03905056D01*
X06040001Y03901967D01*
X06069999Y03909993D02*
X08080586D01*
X08104996Y03872071D02*
X08104337Y03881801D01*
X08101233Y03891045D01*
X08095886Y03899201D01*
X08088646Y03905734D01*
X08080586Y03909993D01*
X08104996Y03872071D02*
Y02117515D01*
X08081374Y02080000D02*
X08089850Y02084807D01*
X08096828Y02091608D01*
X08101853Y02099958D01*
X08104595Y02109309D01*
X08104996Y02117515D01*
X08081348Y02080000D02*
X06111375D01*
X06061388Y02129987D02*
X06062636Y02118886D01*
X06066319Y02108339D01*
X06072251Y02098874D01*
X06080137Y02090962D01*
X06089584Y02085000D01*
X06100118Y02081283D01*
X06111216Y02080000D01*
X06111375Y02080000D01*
X06061388Y02129987D02*
Y02187365D01*
X06060140Y02198469D01*
X06056457Y02209019D01*
X06050525Y02218488D01*
X06042638Y02226403D01*
X06033191Y02232369D01*
X06022655Y02236090D01*
X06011555Y02237378D01*
X06011375Y02237378D01*
X05669999D01*
X05570000Y02337378D02*
X05571250Y02321611D01*
X05574972Y02306238D01*
X05581070Y02291644D01*
X05589393Y02278195D01*
X05599733Y02266226D01*
X05611830Y02256037D01*
X05625383Y02247883D01*
X05640051Y02241968D01*
X05655470Y02238439D01*
X05669999Y02237378D01*
X05570000Y04417378D02*
Y05675973D01*
X05599997Y05727916D02*
X05590075Y05720746D01*
X05581815Y05711711D01*
X05575561Y05701188D01*
X05571573Y05689613D01*
X05570019Y05677471D01*
X05570000Y05675973D01*
X05599997Y05727916D02*
X06040001Y05981967D01*
X06069999Y05989993D02*
X06057819Y05988748D01*
X06046146Y05985056D01*
X06040001Y05981967D01*
X06069999Y05989993D02*
X08080586D01*
X08104996Y05952071D02*
X08104337Y05961801D01*
X08101233Y05971045D01*
X08095886Y05979201D01*
X08088646Y05985734D01*
X08080586Y05989993D01*
X08104996Y05952071D02*
Y04197515D01*
X08081374Y04159999D02*
X08089850Y04164807D01*
X08096828Y04171608D01*
X08101853Y04179957D01*
X08104595Y04189308D01*
X08104996Y04197515D01*
X08081348Y04159999D02*
X06111375D01*
X06061388Y04209987D02*
X06062636Y04198886D01*
X06066319Y04188339D01*
X06072251Y04178874D01*
X06080137Y04170962D01*
X06089584Y04164999D01*
X06100118Y04161283D01*
X06111216Y04160000D01*
X06111375Y04159999D01*
X06061388Y04209987D02*
Y04267365D01*
X06060140Y04278469D01*
X06056457Y04289019D01*
X06050525Y04298488D01*
X06042638Y04306403D01*
X06033191Y04312369D01*
X06022655Y04316090D01*
X06011555Y04317378D01*
X06011375Y04317378D01*
X05669999D01*
X05570000Y04417378D02*
X05571250Y04401611D01*
X05574972Y04386238D01*
X05581070Y04371644D01*
X05589393Y04358195D01*
X05599733Y04346226D01*
X05611830Y04336037D01*
X05625383Y04327883D01*
X05640051Y04321968D01*
X05655470Y04318439D01*
X05669999Y04317378D01*
X05570000Y06497378D02*
Y07755973D01*
X05599997Y07807916D02*
X05590075Y07800746D01*
X05581815Y07791711D01*
X05575561Y07781188D01*
X05571573Y07769613D01*
X05570019Y07757470D01*
X05570000Y07755973D01*
X05599997Y07807916D02*
X06040001Y08061967D01*
X06069999Y08069993D02*
X06057819Y08068748D01*
X06046146Y08065056D01*
X06040001Y08061967D01*
X06069999Y08069993D02*
X08080586D01*
X08104996Y08032071D02*
X08104337Y08041801D01*
X08101233Y08051045D01*
X08095886Y08059201D01*
X08088646Y08065734D01*
X08080586Y08069993D01*
X08104996Y08032071D02*
Y06277515D01*
X08081374Y06240000D02*
X08089850Y06244807D01*
X08096828Y06251608D01*
X08101853Y06259958D01*
X08104595Y06269309D01*
X08104996Y06277515D01*
X08081348Y06240000D02*
X06111375D01*
X06061388Y06289987D02*
X06062636Y06278886D01*
X06066319Y06268339D01*
X06072251Y06258874D01*
X06080137Y06250962D01*
X06089584Y06244999D01*
X06100118Y06241284D01*
X06111216Y06240000D01*
X06111375Y06240000D01*
X06061388Y06289987D02*
Y06347365D01*
X06060140Y06358469D01*
X06056457Y06369019D01*
X06050525Y06378488D01*
X06042638Y06386403D01*
X06033191Y06392369D01*
X06022655Y06396090D01*
X06011555Y06397378D01*
X06011375Y06397378D01*
X05669999D01*
X05570000Y06497378D02*
X05571250Y06481611D01*
X05574972Y06466238D01*
X05581070Y06451644D01*
X05589393Y06438195D01*
X05599733Y06426226D01*
X05611830Y06416037D01*
X05625383Y06407883D01*
X05640051Y06401968D01*
X05655470Y06398439D01*
X05669999Y06397378D01*
X05570000Y08577378D02*
Y09835973D01*
X05599997Y09887916D02*
X05590075Y09880746D01*
X05581815Y09871711D01*
X05575561Y09861187D01*
X05571573Y09849613D01*
X05570019Y09837471D01*
X05570000Y09835973D01*
X05599997Y09887916D02*
X06040001Y10141967D01*
X06069999Y10149993D02*
X06057819Y10148748D01*
X06046146Y10145056D01*
X06040001Y10141967D01*
X06069999Y10149993D02*
X08080586D01*
X08104996Y10112071D02*
X08104337Y10121801D01*
X08101233Y10131045D01*
X08095886Y10139201D01*
X08088646Y10145734D01*
X08080586Y10149993D01*
X08104996Y10112071D02*
Y08357515D01*
X08081374Y08319999D02*
X08089850Y08324807D01*
X08096828Y08331608D01*
X08101853Y08339958D01*
X08104595Y08349308D01*
X08104996Y08357515D01*
X08081348Y08319999D02*
X06111375D01*
X06061388Y08369987D02*
X06062636Y08358886D01*
X06066319Y08348339D01*
X06072251Y08338874D01*
X06080137Y08330962D01*
X06089584Y08325000D01*
X06100118Y08321284D01*
X06111216Y08320000D01*
X06111375Y08319999D01*
X06061388Y08369987D02*
Y08427365D01*
X06060140Y08438469D01*
X06056457Y08449019D01*
X06050525Y08458488D01*
X06042638Y08466403D01*
X06033191Y08472369D01*
X06022655Y08476090D01*
X06011555Y08477378D01*
X06011375Y08477378D01*
X05669999D01*
X05570000Y08577378D02*
X05571250Y08561611D01*
X05574972Y08546238D01*
X05581070Y08531645D01*
X05589393Y08518195D01*
X05599733Y08506226D01*
X05611830Y08496037D01*
X05625383Y08487883D01*
X05640051Y08481968D01*
X05655470Y08478439D01*
X05669999Y08477378D01*
X05570000Y10657378D02*
Y11915973D01*
X05599997Y11967916D02*
X05590075Y11960746D01*
X05581815Y11951711D01*
X05575561Y11941187D01*
X05571573Y11929613D01*
X05570019Y11917470D01*
X05570000Y11915973D01*
X05599997Y11967916D02*
X06040001Y12221967D01*
X06069999Y12229993D02*
X06057819Y12228748D01*
X06046146Y12225056D01*
X06040001Y12221967D01*
X06069999Y12229993D02*
X08080586D01*
X08104996Y12192071D02*
X08104337Y12201801D01*
X08101233Y12211045D01*
X08095886Y12219201D01*
X08088646Y12225734D01*
X08080586Y12229993D01*
X08104996Y12192071D02*
Y10437515D01*
X08081374Y10399999D02*
X08089850Y10404807D01*
X08096828Y10411608D01*
X08101853Y10419958D01*
X08104595Y10429309D01*
X08104996Y10437515D01*
X08081348Y10399999D02*
X06111375D01*
X06061388Y10449987D02*
X06062636Y10438886D01*
X06066319Y10428339D01*
X06072251Y10418874D01*
X06080137Y10410962D01*
X06089584Y10405000D01*
X06100118Y10401284D01*
X06111216Y10400000D01*
X06111375Y10399999D01*
X06061388Y10449987D02*
Y10507365D01*
X06060140Y10518469D01*
X06056457Y10529019D01*
X06050525Y10538488D01*
X06042638Y10546403D01*
X06033191Y10552369D01*
X06022655Y10556090D01*
X06011555Y10557378D01*
X06011375Y10557378D01*
X05669999D01*
X05570000Y10657378D02*
X05571250Y10641611D01*
X05574972Y10626238D01*
X05581070Y10611645D01*
X05589393Y10598195D01*
X05599733Y10586226D01*
X05611830Y10576037D01*
X05625383Y10567883D01*
X05640051Y10561968D01*
X05655470Y10558439D01*
X05669999Y10557378D01*
X08355000Y00257378D02*
Y01515973D01*
X08384997Y01567916D02*
X08375075Y01560746D01*
X08366815Y01551711D01*
X08360561Y01541187D01*
X08356573Y01529613D01*
X08355019Y01517471D01*
X08355000Y01515973D01*
X08384997Y01567916D02*
X08825001Y01821967D01*
X08854999Y01829993D02*
X08842819Y01828748D01*
X08831146Y01825056D01*
X08825001Y01821967D01*
X08854999Y01829993D02*
X10865586D01*
X10889996Y01792071D02*
X10889337Y01801801D01*
X10886233Y01811045D01*
X10880886Y01819201D01*
X10873646Y01825734D01*
X10865586Y01829993D01*
X10889996Y01792071D02*
Y00037515D01*
X10866374Y-00000001D02*
X10874850Y00004807D01*
X10881828Y00011608D01*
X10886853Y00019958D01*
X10889595Y00029309D01*
X10889996Y00037515D01*
X10866348Y-00000001D02*
X08896375D01*
X08846388Y00049987D02*
X08847636Y00038886D01*
X08851319Y00028339D01*
X08857251Y00018874D01*
X08865137Y00010962D01*
X08874584Y00005000D01*
X08885119Y00001284D01*
X08896216Y-00000000D01*
X08896375Y-00000001D01*
X08846388Y00049987D02*
Y00107365D01*
X08845140Y00118469D01*
X08841458Y00129019D01*
X08835525Y00138488D01*
X08827638Y00146403D01*
X08818191Y00152369D01*
X08807655Y00156090D01*
X08796555Y00157378D01*
X08796375Y00157378D01*
X08454999D01*
X08355000Y00257378D02*
X08356250Y00241611D01*
X08359971Y00226238D01*
X08366070Y00211644D01*
X08374393Y00198195D01*
X08384733Y00186226D01*
X08396830Y00176037D01*
X08410383Y00167883D01*
X08425052Y00161968D01*
X08440469Y00158439D01*
X08454999Y00157378D01*
X08355000Y02337378D02*
Y03595973D01*
X08384997Y03647916D02*
X08375075Y03640746D01*
X08366815Y03631711D01*
X08360561Y03621188D01*
X08356573Y03609613D01*
X08355019Y03597471D01*
X08355000Y03595973D01*
X08384997Y03647916D02*
X08825001Y03901967D01*
X08854999Y03909993D02*
X08842819Y03908748D01*
X08831146Y03905056D01*
X08825001Y03901967D01*
X08854999Y03909993D02*
X10865586D01*
X10889996Y03872071D02*
X10889337Y03881801D01*
X10886233Y03891045D01*
X10880886Y03899201D01*
X10873646Y03905734D01*
X10865586Y03909993D01*
X10889996Y03872071D02*
Y02117515D01*
X10866374Y02080000D02*
X10874850Y02084807D01*
X10881828Y02091608D01*
X10886853Y02099958D01*
X10889595Y02109309D01*
X10889996Y02117515D01*
X10866348Y02080000D02*
X08896375D01*
X08846388Y02129987D02*
X08847636Y02118886D01*
X08851319Y02108339D01*
X08857251Y02098874D01*
X08865137Y02090962D01*
X08874584Y02085000D01*
X08885119Y02081283D01*
X08896216Y02080000D01*
X08896375Y02080000D01*
X08846388Y02129987D02*
Y02187365D01*
X08845140Y02198469D01*
X08841458Y02209019D01*
X08835525Y02218488D01*
X08827638Y02226403D01*
X08818191Y02232369D01*
X08807655Y02236090D01*
X08796555Y02237378D01*
X08796375Y02237378D01*
X08454999D01*
X08355000Y02337378D02*
X08356250Y02321611D01*
X08359971Y02306238D01*
X08366070Y02291644D01*
X08374393Y02278195D01*
X08384733Y02266226D01*
X08396830Y02256037D01*
X08410383Y02247883D01*
X08425052Y02241968D01*
X08440469Y02238439D01*
X08454999Y02237378D01*
X08355000Y04417378D02*
Y05675973D01*
X08384997Y05727916D02*
X08375075Y05720746D01*
X08366815Y05711711D01*
X08360561Y05701188D01*
X08356573Y05689613D01*
X08355019Y05677471D01*
X08355000Y05675973D01*
X08384997Y05727916D02*
X08825001Y05981967D01*
X08854999Y05989993D02*
X08842819Y05988748D01*
X08831146Y05985056D01*
X08825001Y05981967D01*
X08854999Y05989993D02*
X10865586D01*
X10889996Y05952071D02*
X10889337Y05961801D01*
X10886233Y05971045D01*
X10880886Y05979201D01*
X10873646Y05985734D01*
X10865586Y05989993D01*
X10889996Y05952071D02*
Y04197515D01*
X10866374Y04159999D02*
X10874850Y04164807D01*
X10881828Y04171608D01*
X10886853Y04179957D01*
X10889595Y04189308D01*
X10889996Y04197515D01*
X10866348Y04159999D02*
X08896375D01*
X08846388Y04209987D02*
X08847636Y04198886D01*
X08851319Y04188339D01*
X08857251Y04178874D01*
X08865137Y04170962D01*
X08874584Y04164999D01*
X08885119Y04161283D01*
X08896216Y04160000D01*
X08896375Y04159999D01*
X08846388Y04209987D02*
Y04267365D01*
X08845140Y04278469D01*
X08841458Y04289019D01*
X08835525Y04298488D01*
X08827638Y04306403D01*
X08818191Y04312369D01*
X08807655Y04316090D01*
X08796555Y04317378D01*
X08796375Y04317378D01*
X08454999D01*
X08355000Y04417378D02*
X08356250Y04401611D01*
X08359971Y04386238D01*
X08366070Y04371644D01*
X08374393Y04358195D01*
X08384733Y04346226D01*
X08396830Y04336037D01*
X08410383Y04327883D01*
X08425052Y04321968D01*
X08440469Y04318439D01*
X08454999Y04317378D01*
X08355000Y06497378D02*
Y07755973D01*
X08384997Y07807916D02*
X08375075Y07800746D01*
X08366815Y07791711D01*
X08360561Y07781188D01*
X08356573Y07769613D01*
X08355019Y07757470D01*
X08355000Y07755973D01*
X08384997Y07807916D02*
X08825001Y08061967D01*
X08854999Y08069993D02*
X08842819Y08068748D01*
X08831146Y08065056D01*
X08825001Y08061967D01*
X08854999Y08069993D02*
X10865586D01*
X10889996Y08032071D02*
X10889337Y08041801D01*
X10886233Y08051045D01*
X10880886Y08059201D01*
X10873646Y08065734D01*
X10865586Y08069993D01*
X10889996Y08032071D02*
Y06277515D01*
X10866374Y06240000D02*
X10874850Y06244807D01*
X10881828Y06251608D01*
X10886853Y06259958D01*
X10889595Y06269309D01*
X10889996Y06277515D01*
X10866348Y06240000D02*
X08896375D01*
X08846388Y06289987D02*
X08847636Y06278886D01*
X08851319Y06268339D01*
X08857251Y06258874D01*
X08865137Y06250962D01*
X08874584Y06244999D01*
X08885119Y06241284D01*
X08896216Y06240000D01*
X08896375Y06240000D01*
X08846388Y06289987D02*
Y06347365D01*
X08845140Y06358469D01*
X08841458Y06369019D01*
X08835525Y06378488D01*
X08827638Y06386403D01*
X08818191Y06392369D01*
X08807655Y06396090D01*
X08796555Y06397378D01*
X08796375Y06397378D01*
X08454999D01*
X08355000Y06497378D02*
X08356250Y06481611D01*
X08359971Y06466238D01*
X08366070Y06451644D01*
X08374393Y06438195D01*
X08384733Y06426226D01*
X08396830Y06416037D01*
X08410383Y06407883D01*
X08425052Y06401968D01*
X08440469Y06398439D01*
X08454999Y06397378D01*
X08355000Y08577378D02*
Y09835973D01*
X08384997Y09887916D02*
X08375075Y09880746D01*
X08366815Y09871711D01*
X08360561Y09861187D01*
X08356573Y09849613D01*
X08355019Y09837471D01*
X08355000Y09835973D01*
X08384997Y09887916D02*
X08825001Y10141967D01*
X08854999Y10149993D02*
X08842819Y10148748D01*
X08831146Y10145056D01*
X08825001Y10141967D01*
X08854999Y10149993D02*
X10865586D01*
X10889996Y10112071D02*
X10889337Y10121801D01*
X10886233Y10131045D01*
X10880886Y10139201D01*
X10873646Y10145734D01*
X10865586Y10149993D01*
X10889996Y10112071D02*
Y08357515D01*
X10866374Y08319999D02*
X10874850Y08324807D01*
X10881828Y08331608D01*
X10886853Y08339958D01*
X10889595Y08349308D01*
X10889996Y08357515D01*
X10866348Y08319999D02*
X08896375D01*
X08846388Y08369987D02*
X08847636Y08358886D01*
X08851319Y08348339D01*
X08857251Y08338874D01*
X08865137Y08330962D01*
X08874584Y08325000D01*
X08885119Y08321284D01*
X08896216Y08320000D01*
X08896375Y08319999D01*
X08846388Y08369987D02*
Y08427365D01*
X08845140Y08438469D01*
X08841458Y08449019D01*
X08835525Y08458488D01*
X08827638Y08466403D01*
X08818191Y08472369D01*
X08807655Y08476090D01*
X08796555Y08477378D01*
X08796375Y08477378D01*
X08454999D01*
X08355000Y08577378D02*
X08356250Y08561611D01*
X08359971Y08546238D01*
X08366070Y08531645D01*
X08374393Y08518195D01*
X08384733Y08506226D01*
X08396830Y08496037D01*
X08410383Y08487883D01*
X08425052Y08481968D01*
X08440469Y08478439D01*
X08454999Y08477378D01*
X08355000Y10657378D02*
Y11915973D01*
X08384997Y11967916D02*
X08375075Y11960746D01*
X08366815Y11951711D01*
X08360561Y11941187D01*
X08356573Y11929613D01*
X08355019Y11917470D01*
X08355000Y11915973D01*
X08384997Y11967916D02*
X08825001Y12221967D01*
X08854999Y12229993D02*
X08842819Y12228748D01*
X08831146Y12225056D01*
X08825001Y12221967D01*
X08854999Y12229993D02*
X10865586D01*
X10889996Y12192071D02*
X10889337Y12201801D01*
X10886233Y12211045D01*
X10880886Y12219201D01*
X10873646Y12225734D01*
X10865586Y12229993D01*
X10889996Y12192071D02*
Y10437515D01*
X10866374Y10399999D02*
X10874850Y10404807D01*
X10881828Y10411608D01*
X10886853Y10419958D01*
X10889595Y10429309D01*
X10889996Y10437515D01*
X10866348Y10399999D02*
X08896375D01*
X08846388Y10449987D02*
X08847636Y10438886D01*
X08851319Y10428339D01*
X08857251Y10418874D01*
X08865137Y10410962D01*
X08874584Y10405000D01*
X08885119Y10401284D01*
X08896216Y10400000D01*
X08896375Y10399999D01*
X08846388Y10449987D02*
Y10507365D01*
X08845140Y10518469D01*
X08841458Y10529019D01*
X08835525Y10538488D01*
X08827638Y10546403D01*
X08818191Y10552369D01*
X08807655Y10556090D01*
X08796555Y10557378D01*
X08796375Y10557378D01*
X08454999D01*
X08355000Y10657378D02*
X08356250Y10641611D01*
X08359971Y10626238D01*
X08366070Y10611645D01*
X08374393Y10598195D01*
X08384733Y10586226D01*
X08396830Y10576037D01*
X08410383Y10567883D01*
X08425052Y10561968D01*
X08440469Y10558439D01*
X08454999Y10557378D01*
X11140000Y00257378D02*
Y01515973D01*
X11169997Y01567916D02*
X11160075Y01560746D01*
X11151815Y01551711D01*
X11145561Y01541187D01*
X11141573Y01529613D01*
X11140019Y01517471D01*
X11140000Y01515973D01*
X11169997Y01567916D02*
X11610001Y01821967D01*
X11639998Y01829993D02*
X11627819Y01828748D01*
X11616146Y01825056D01*
X11610001Y01821967D01*
X11639998Y01829993D02*
X13650586D01*
X13674996Y01792071D02*
X13674337Y01801801D01*
X13671233Y01811045D01*
X13665886Y01819201D01*
X13658646Y01825734D01*
X13650586Y01829993D01*
X13674996Y01792071D02*
Y00037515D01*
X13651374Y-00000001D02*
X13659850Y00004807D01*
X13666829Y00011608D01*
X13671853Y00019958D01*
X13674595Y00029309D01*
X13674996Y00037515D01*
X13651348Y-00000001D02*
X11681375D01*
X11631388Y00049987D02*
X11632636Y00038886D01*
X11636318Y00028339D01*
X11642251Y00018874D01*
X11650137Y00010962D01*
X11659584Y00005000D01*
X11670119Y00001284D01*
X11681215Y-00000000D01*
X11681375Y-00000001D01*
X11631388Y00049987D02*
Y00107365D01*
X11630140Y00118469D01*
X11626458Y00129019D01*
X11620525Y00138488D01*
X11612638Y00146403D01*
X11603191Y00152369D01*
X11592655Y00156090D01*
X11581555Y00157378D01*
X11581375Y00157378D01*
X11239999D01*
X11140000Y00257378D02*
X11141250Y00241611D01*
X11144971Y00226238D01*
X11151070Y00211644D01*
X11159393Y00198195D01*
X11169733Y00186226D01*
X11181830Y00176037D01*
X11195383Y00167883D01*
X11210052Y00161968D01*
X11225469Y00158439D01*
X11239999Y00157378D01*
X11140000Y02337378D02*
Y03595973D01*
X11169997Y03647916D02*
X11160075Y03640746D01*
X11151815Y03631711D01*
X11145561Y03621188D01*
X11141573Y03609613D01*
X11140019Y03597471D01*
X11140000Y03595973D01*
X11169997Y03647916D02*
X11610001Y03901967D01*
X11639998Y03909993D02*
X11627819Y03908748D01*
X11616146Y03905056D01*
X11610001Y03901967D01*
X11639998Y03909993D02*
X13650586D01*
X13674996Y03872071D02*
X13674337Y03881801D01*
X13671233Y03891045D01*
X13665886Y03899201D01*
X13658646Y03905734D01*
X13650586Y03909993D01*
X13674996Y03872071D02*
Y02117515D01*
X13651374Y02080000D02*
X13659850Y02084807D01*
X13666829Y02091608D01*
X13671853Y02099958D01*
X13674595Y02109309D01*
X13674996Y02117515D01*
X13651348Y02080000D02*
X11681375D01*
X11631388Y02129987D02*
X11632636Y02118886D01*
X11636318Y02108339D01*
X11642251Y02098874D01*
X11650137Y02090962D01*
X11659584Y02085000D01*
X11670119Y02081283D01*
X11681215Y02080000D01*
X11681375Y02080000D01*
X11631388Y02129987D02*
Y02187365D01*
X11630140Y02198469D01*
X11626458Y02209019D01*
X11620525Y02218488D01*
X11612638Y02226403D01*
X11603191Y02232369D01*
X11592655Y02236090D01*
X11581555Y02237378D01*
X11581375Y02237378D01*
X11239999D01*
X11140000Y02337378D02*
X11141250Y02321611D01*
X11144971Y02306238D01*
X11151070Y02291644D01*
X11159393Y02278195D01*
X11169733Y02266226D01*
X11181830Y02256037D01*
X11195383Y02247883D01*
X11210052Y02241968D01*
X11225469Y02238439D01*
X11239999Y02237378D01*
X11140000Y04417378D02*
Y05675973D01*
X11169997Y05727916D02*
X11160075Y05720746D01*
X11151815Y05711711D01*
X11145561Y05701188D01*
X11141573Y05689613D01*
X11140019Y05677471D01*
X11140000Y05675973D01*
X11169997Y05727916D02*
X11610001Y05981967D01*
X11639998Y05989993D02*
X11627819Y05988748D01*
X11616146Y05985056D01*
X11610001Y05981967D01*
X11639998Y05989993D02*
X13650586D01*
X13674996Y05952071D02*
X13674337Y05961801D01*
X13671233Y05971045D01*
X13665886Y05979201D01*
X13658646Y05985734D01*
X13650586Y05989993D01*
X13674996Y05952071D02*
Y04197515D01*
X13651374Y04159999D02*
X13659850Y04164807D01*
X13666829Y04171608D01*
X13671853Y04179957D01*
X13674595Y04189308D01*
X13674996Y04197515D01*
X13651348Y04159999D02*
X11681375D01*
X11631388Y04209987D02*
X11632636Y04198886D01*
X11636318Y04188339D01*
X11642251Y04178874D01*
X11650137Y04170962D01*
X11659584Y04164999D01*
X11670119Y04161283D01*
X11681215Y04160000D01*
X11681375Y04159999D01*
X11631388Y04209987D02*
Y04267365D01*
X11630140Y04278469D01*
X11626458Y04289019D01*
X11620525Y04298488D01*
X11612638Y04306403D01*
X11603191Y04312369D01*
X11592655Y04316090D01*
X11581555Y04317378D01*
X11581375Y04317378D01*
X11239999D01*
X11140000Y04417378D02*
X11141250Y04401611D01*
X11144971Y04386238D01*
X11151070Y04371644D01*
X11159393Y04358195D01*
X11169733Y04346226D01*
X11181830Y04336037D01*
X11195383Y04327883D01*
X11210052Y04321968D01*
X11225469Y04318439D01*
X11239999Y04317378D01*
X11140000Y06497378D02*
Y07755973D01*
X11169997Y07807916D02*
X11160075Y07800746D01*
X11151815Y07791711D01*
X11145561Y07781188D01*
X11141573Y07769613D01*
X11140019Y07757470D01*
X11140000Y07755973D01*
X11169997Y07807916D02*
X11610001Y08061967D01*
X11639998Y08069993D02*
X11627819Y08068748D01*
X11616146Y08065056D01*
X11610001Y08061967D01*
X11639998Y08069993D02*
X13650586D01*
X13674996Y08032071D02*
X13674337Y08041801D01*
X13671233Y08051045D01*
X13665886Y08059201D01*
X13658646Y08065734D01*
X13650586Y08069993D01*
X13674996Y08032071D02*
Y06277515D01*
X13651374Y06240000D02*
X13659850Y06244807D01*
X13666829Y06251608D01*
X13671853Y06259958D01*
X13674595Y06269309D01*
X13674996Y06277515D01*
X13651348Y06240000D02*
X11681375D01*
X11631388Y06289987D02*
X11632636Y06278886D01*
X11636318Y06268339D01*
X11642251Y06258874D01*
X11650137Y06250962D01*
X11659584Y06244999D01*
X11670119Y06241284D01*
X11681215Y06240000D01*
X11681375Y06240000D01*
X11631388Y06289987D02*
Y06347365D01*
X11630140Y06358469D01*
X11626458Y06369019D01*
X11620525Y06378488D01*
X11612638Y06386403D01*
X11603191Y06392369D01*
X11592655Y06396090D01*
X11581555Y06397378D01*
X11581375Y06397378D01*
X11239999D01*
X11140000Y06497378D02*
X11141250Y06481611D01*
X11144971Y06466238D01*
X11151070Y06451644D01*
X11159393Y06438195D01*
X11169733Y06426226D01*
X11181830Y06416037D01*
X11195383Y06407883D01*
X11210052Y06401968D01*
X11225469Y06398439D01*
X11239999Y06397378D01*
X11140000Y08577378D02*
Y09835973D01*
X11169997Y09887916D02*
X11160075Y09880746D01*
X11151815Y09871711D01*
X11145561Y09861187D01*
X11141573Y09849613D01*
X11140019Y09837471D01*
X11140000Y09835973D01*
X11169997Y09887916D02*
X11610001Y10141967D01*
X11639998Y10149993D02*
X11627819Y10148748D01*
X11616146Y10145056D01*
X11610001Y10141967D01*
X11639998Y10149993D02*
X13650586D01*
X13674996Y10112071D02*
X13674337Y10121801D01*
X13671233Y10131045D01*
X13665886Y10139201D01*
X13658646Y10145734D01*
X13650586Y10149993D01*
X13674996Y10112071D02*
Y08357515D01*
X13651374Y08319999D02*
X13659850Y08324807D01*
X13666829Y08331608D01*
X13671853Y08339958D01*
X13674595Y08349308D01*
X13674996Y08357515D01*
X13651348Y08319999D02*
X11681375D01*
X11631388Y08369987D02*
X11632636Y08358886D01*
X11636318Y08348339D01*
X11642251Y08338874D01*
X11650137Y08330962D01*
X11659584Y08325000D01*
X11670119Y08321284D01*
X11681215Y08320000D01*
X11681375Y08319999D01*
X11631388Y08369987D02*
Y08427365D01*
X11630140Y08438469D01*
X11626458Y08449019D01*
X11620525Y08458488D01*
X11612638Y08466403D01*
X11603191Y08472369D01*
X11592655Y08476090D01*
X11581555Y08477378D01*
X11581375Y08477378D01*
X11239999D01*
X11140000Y08577378D02*
X11141250Y08561611D01*
X11144971Y08546238D01*
X11151070Y08531645D01*
X11159393Y08518195D01*
X11169733Y08506226D01*
X11181830Y08496037D01*
X11195383Y08487883D01*
X11210052Y08481968D01*
X11225469Y08478439D01*
X11239999Y08477378D01*
X11140000Y10657378D02*
Y11915973D01*
X11169997Y11967916D02*
X11160075Y11960746D01*
X11151815Y11951711D01*
X11145561Y11941187D01*
X11141573Y11929613D01*
X11140019Y11917470D01*
X11140000Y11915973D01*
X11169997Y11967916D02*
X11610001Y12221967D01*
X11639998Y12229993D02*
X11627819Y12228748D01*
X11616146Y12225056D01*
X11610001Y12221967D01*
X11639998Y12229993D02*
X13650586D01*
X13674996Y12192071D02*
X13674337Y12201801D01*
X13671233Y12211045D01*
X13665886Y12219201D01*
X13658646Y12225734D01*
X13650586Y12229993D01*
X13674996Y12192071D02*
Y10437515D01*
X13651374Y10399999D02*
X13659850Y10404807D01*
X13666829Y10411608D01*
X13671853Y10419958D01*
X13674595Y10429309D01*
X13674996Y10437515D01*
X13651348Y10399999D02*
X11681375D01*
X11631388Y10449987D02*
X11632636Y10438886D01*
X11636318Y10428339D01*
X11642251Y10418874D01*
X11650137Y10410962D01*
X11659584Y10405000D01*
X11670119Y10401284D01*
X11681215Y10400000D01*
X11681375Y10399999D01*
X11631388Y10449987D02*
Y10507365D01*
X11630140Y10518469D01*
X11626458Y10529019D01*
X11620525Y10538488D01*
X11612638Y10546403D01*
X11603191Y10552369D01*
X11592655Y10556090D01*
X11581555Y10557378D01*
X11581375Y10557378D01*
X11239999D01*
X11140000Y10657378D02*
X11141250Y10641611D01*
X11144971Y10626238D01*
X11151070Y10611645D01*
X11159393Y10598195D01*
X11169733Y10586226D01*
X11181830Y10576037D01*
X11195383Y10567883D01*
X11210052Y10561968D01*
X11225469Y10558439D01*
X11239999Y10557378D01*
X13925000Y00257378D02*
Y01515973D01*
X13954997Y01567916D02*
X13945075Y01560746D01*
X13936815Y01551711D01*
X13930561Y01541187D01*
X13926573Y01529613D01*
X13925018Y01517471D01*
X13925000Y01515973D01*
X13954997Y01567916D02*
X14395001Y01821967D01*
X14424998Y01829993D02*
X14412819Y01828748D01*
X14401146Y01825056D01*
X14395001Y01821967D01*
X14424998Y01829993D02*
X16435586D01*
X16459996Y01792071D02*
X16459337Y01801801D01*
X16456233Y01811045D01*
X16450886Y01819201D01*
X16443646Y01825734D01*
X16435586Y01829993D01*
X16459996Y01792071D02*
Y00037515D01*
X16436374Y-00000001D02*
X16444850Y00004807D01*
X16451829Y00011608D01*
X16456853Y00019958D01*
X16459595Y00029309D01*
X16459996Y00037515D01*
X16436348Y-00000001D02*
X14466375D01*
X14416388Y00049987D02*
X14417636Y00038886D01*
X14421318Y00028339D01*
X14427251Y00018874D01*
X14435137Y00010962D01*
X14444584Y00005000D01*
X14455118Y00001284D01*
X14466215Y-00000000D01*
X14466375Y-00000001D01*
X14416388Y00049987D02*
Y00107365D01*
X14415140Y00118469D01*
X14411457Y00129019D01*
X14405525Y00138488D01*
X14397638Y00146403D01*
X14388191Y00152369D01*
X14377654Y00156090D01*
X14366555Y00157378D01*
X14366375Y00157378D01*
X14024999D01*
X13925000Y00257378D02*
X13926250Y00241611D01*
X13929972Y00226238D01*
X13936070Y00211644D01*
X13944393Y00198195D01*
X13954733Y00186226D01*
X13966830Y00176037D01*
X13980383Y00167883D01*
X13995052Y00161968D01*
X14010470Y00158439D01*
X14024999Y00157378D01*
X13925000Y02337378D02*
Y03595973D01*
X13954997Y03647916D02*
X13945075Y03640746D01*
X13936815Y03631711D01*
X13930561Y03621188D01*
X13926573Y03609613D01*
X13925018Y03597471D01*
X13925000Y03595973D01*
X13954997Y03647916D02*
X14395001Y03901967D01*
X14424998Y03909993D02*
X14412819Y03908748D01*
X14401146Y03905056D01*
X14395001Y03901967D01*
X14424998Y03909993D02*
X16435586D01*
X16459996Y03872071D02*
X16459337Y03881801D01*
X16456233Y03891045D01*
X16450886Y03899201D01*
X16443646Y03905734D01*
X16435586Y03909993D01*
X16459996Y03872071D02*
Y02117515D01*
X16436374Y02080000D02*
X16444850Y02084807D01*
X16451829Y02091608D01*
X16456853Y02099958D01*
X16459595Y02109309D01*
X16459996Y02117515D01*
X16436348Y02080000D02*
X14466375D01*
X14416388Y02129987D02*
X14417636Y02118886D01*
X14421318Y02108339D01*
X14427251Y02098874D01*
X14435137Y02090962D01*
X14444584Y02085000D01*
X14455118Y02081283D01*
X14466215Y02080000D01*
X14466375Y02080000D01*
X14416388Y02129987D02*
Y02187365D01*
X14415140Y02198469D01*
X14411457Y02209019D01*
X14405525Y02218488D01*
X14397638Y02226403D01*
X14388191Y02232369D01*
X14377654Y02236090D01*
X14366555Y02237378D01*
X14366375Y02237378D01*
X14024999D01*
X13925000Y02337378D02*
X13926250Y02321611D01*
X13929972Y02306238D01*
X13936070Y02291644D01*
X13944393Y02278195D01*
X13954733Y02266226D01*
X13966830Y02256037D01*
X13980383Y02247883D01*
X13995052Y02241968D01*
X14010470Y02238439D01*
X14024999Y02237378D01*
X13925000Y04417378D02*
Y05675973D01*
X13954997Y05727916D02*
X13945075Y05720746D01*
X13936815Y05711711D01*
X13930561Y05701188D01*
X13926573Y05689613D01*
X13925018Y05677471D01*
X13925000Y05675973D01*
X13954997Y05727916D02*
X14395001Y05981967D01*
X14424998Y05989993D02*
X14412819Y05988748D01*
X14401146Y05985056D01*
X14395001Y05981967D01*
X14424998Y05989993D02*
X16435586D01*
X16459996Y05952071D02*
X16459337Y05961801D01*
X16456233Y05971045D01*
X16450886Y05979201D01*
X16443646Y05985734D01*
X16435586Y05989993D01*
X16459996Y05952071D02*
Y04197515D01*
X16436374Y04159999D02*
X16444850Y04164807D01*
X16451829Y04171608D01*
X16456853Y04179957D01*
X16459595Y04189308D01*
X16459996Y04197515D01*
X16436348Y04159999D02*
X14466375D01*
X14416388Y04209987D02*
X14417636Y04198886D01*
X14421318Y04188339D01*
X14427251Y04178874D01*
X14435137Y04170962D01*
X14444584Y04164999D01*
X14455118Y04161283D01*
X14466215Y04160000D01*
X14466375Y04159999D01*
X14416388Y04209987D02*
Y04267365D01*
X14415140Y04278469D01*
X14411457Y04289019D01*
X14405525Y04298488D01*
X14397638Y04306403D01*
X14388191Y04312369D01*
X14377654Y04316090D01*
X14366555Y04317378D01*
X14366375Y04317378D01*
X14024999D01*
X13925000Y04417378D02*
X13926250Y04401611D01*
X13929972Y04386238D01*
X13936070Y04371644D01*
X13944393Y04358195D01*
X13954733Y04346226D01*
X13966830Y04336037D01*
X13980383Y04327883D01*
X13995052Y04321968D01*
X14010470Y04318439D01*
X14024999Y04317378D01*
X13925000Y06497378D02*
Y07755973D01*
X13954997Y07807916D02*
X13945075Y07800746D01*
X13936815Y07791711D01*
X13930561Y07781188D01*
X13926573Y07769613D01*
X13925018Y07757470D01*
X13925000Y07755973D01*
X13954997Y07807916D02*
X14395001Y08061967D01*
X14424998Y08069993D02*
X14412819Y08068748D01*
X14401146Y08065056D01*
X14395001Y08061967D01*
X14424998Y08069993D02*
X16435586D01*
X16459996Y08032071D02*
X16459337Y08041801D01*
X16456233Y08051045D01*
X16450886Y08059201D01*
X16443646Y08065734D01*
X16435586Y08069993D01*
X16459996Y08032071D02*
Y06277515D01*
X16436374Y06240000D02*
X16444850Y06244807D01*
X16451829Y06251608D01*
X16456853Y06259958D01*
X16459595Y06269309D01*
X16459996Y06277515D01*
X16436348Y06240000D02*
X14466375D01*
X14416388Y06289987D02*
X14417636Y06278886D01*
X14421318Y06268339D01*
X14427251Y06258874D01*
X14435137Y06250962D01*
X14444584Y06244999D01*
X14455118Y06241284D01*
X14466215Y06240000D01*
X14466375Y06240000D01*
X14416388Y06289987D02*
Y06347365D01*
X14415140Y06358469D01*
X14411457Y06369019D01*
X14405525Y06378488D01*
X14397638Y06386403D01*
X14388191Y06392369D01*
X14377654Y06396090D01*
X14366555Y06397378D01*
X14366375Y06397378D01*
X14024999D01*
X13925000Y06497378D02*
X13926250Y06481611D01*
X13929972Y06466238D01*
X13936070Y06451644D01*
X13944393Y06438195D01*
X13954733Y06426226D01*
X13966830Y06416037D01*
X13980383Y06407883D01*
X13995052Y06401968D01*
X14010470Y06398439D01*
X14024999Y06397378D01*
X13925000Y08577378D02*
Y09835973D01*
X13954997Y09887916D02*
X13945075Y09880746D01*
X13936815Y09871711D01*
X13930561Y09861187D01*
X13926573Y09849613D01*
X13925018Y09837471D01*
X13925000Y09835973D01*
X13954997Y09887916D02*
X14395001Y10141967D01*
X14424998Y10149993D02*
X14412819Y10148748D01*
X14401146Y10145056D01*
X14395001Y10141967D01*
X14424998Y10149993D02*
X16435586D01*
X16459996Y10112071D02*
X16459337Y10121801D01*
X16456233Y10131045D01*
X16450886Y10139201D01*
X16443646Y10145734D01*
X16435586Y10149993D01*
X16459996Y10112071D02*
Y08357515D01*
X16436374Y08319999D02*
X16444850Y08324807D01*
X16451829Y08331608D01*
X16456853Y08339958D01*
X16459595Y08349308D01*
X16459996Y08357515D01*
X16436348Y08319999D02*
X14466375D01*
X14416388Y08369987D02*
X14417636Y08358886D01*
X14421318Y08348339D01*
X14427251Y08338874D01*
X14435137Y08330962D01*
X14444584Y08325000D01*
X14455118Y08321284D01*
X14466215Y08320000D01*
X14466375Y08319999D01*
X14416388Y08369987D02*
Y08427365D01*
X14415140Y08438469D01*
X14411457Y08449019D01*
X14405525Y08458488D01*
X14397638Y08466403D01*
X14388191Y08472369D01*
X14377654Y08476090D01*
X14366555Y08477378D01*
X14366375Y08477378D01*
X14024999D01*
X13925000Y08577378D02*
X13926250Y08561611D01*
X13929972Y08546238D01*
X13936070Y08531645D01*
X13944393Y08518195D01*
X13954733Y08506226D01*
X13966830Y08496037D01*
X13980383Y08487883D01*
X13995052Y08481968D01*
X14010470Y08478439D01*
X14024999Y08477378D01*
X13925000Y10657378D02*
Y11915973D01*
X13954997Y11967916D02*
X13945075Y11960746D01*
X13936815Y11951711D01*
X13930561Y11941187D01*
X13926573Y11929613D01*
X13925018Y11917470D01*
X13925000Y11915973D01*
X13954997Y11967916D02*
X14395001Y12221967D01*
X14424998Y12229993D02*
X14412819Y12228748D01*
X14401146Y12225056D01*
X14395001Y12221967D01*
X14424998Y12229993D02*
X16435586D01*
X16459996Y12192071D02*
X16459337Y12201801D01*
X16456233Y12211045D01*
X16450886Y12219201D01*
X16443646Y12225734D01*
X16435586Y12229993D01*
X16459996Y12192071D02*
Y10437515D01*
X16436374Y10399999D02*
X16444850Y10404807D01*
X16451829Y10411608D01*
X16456853Y10419958D01*
X16459595Y10429309D01*
X16459996Y10437515D01*
X16436348Y10399999D02*
X14466375D01*
X14416388Y10449987D02*
X14417636Y10438886D01*
X14421318Y10428339D01*
X14427251Y10418874D01*
X14435137Y10410962D01*
X14444584Y10405000D01*
X14455118Y10401284D01*
X14466215Y10400000D01*
X14466375Y10399999D01*
X14416388Y10449987D02*
Y10507365D01*
X14415140Y10518469D01*
X14411457Y10529019D01*
X14405525Y10538488D01*
X14397638Y10546403D01*
X14388191Y10552369D01*
X14377654Y10556090D01*
X14366555Y10557378D01*
X14366375Y10557378D01*
X14024999D01*
X13925000Y10657378D02*
X13926250Y10641611D01*
X13929972Y10626238D01*
X13936070Y10611645D01*
X13944393Y10598195D01*
X13954733Y10586226D01*
X13966830Y10576037D01*
X13980383Y10567883D01*
X13995052Y10561968D01*
X14010470Y10558439D01*
X14024999Y10557378D01*
X16709999Y00257378D02*
Y01515973D01*
X16739997Y01567916D02*
X16730075Y01560746D01*
X16721815Y01551711D01*
X16715561Y01541187D01*
X16711573Y01529613D01*
X16710019Y01517471D01*
X16709999Y01515973D01*
X16739997Y01567916D02*
X17180001Y01821967D01*
X17209999Y01829993D02*
X17197819Y01828748D01*
X17186146Y01825056D01*
X17180001Y01821967D01*
X17209999Y01829993D02*
X19220586D01*
X19244996Y01792071D02*
X19244337Y01801801D01*
X19241233Y01811045D01*
X19235886Y01819201D01*
X19228646Y01825734D01*
X19220586Y01829993D01*
X19244996Y01792071D02*
Y00037515D01*
X19221374Y-00000001D02*
X19229850Y00004807D01*
X19236829Y00011608D01*
X19241853Y00019958D01*
X19244595Y00029309D01*
X19244996Y00037515D01*
X19221348Y-00000001D02*
X17251375D01*
X17201388Y00049987D02*
X17202636Y00038886D01*
X17206319Y00028339D01*
X17212251Y00018874D01*
X17220137Y00010962D01*
X17229584Y00005000D01*
X17240119Y00001284D01*
X17251216Y-00000000D01*
X17251375Y-00000001D01*
X17201388Y00049987D02*
Y00107365D01*
X17200140Y00118469D01*
X17196458Y00129019D01*
X17190525Y00138488D01*
X17182638Y00146403D01*
X17173191Y00152369D01*
X17162655Y00156090D01*
X17151555Y00157378D01*
X17151375Y00157378D01*
X16809999D01*
X16709999Y00257378D02*
X16711250Y00241611D01*
X16714971Y00226238D01*
X16721070Y00211644D01*
X16729393Y00198195D01*
X16739733Y00186226D01*
X16751830Y00176037D01*
X16765383Y00167883D01*
X16780052Y00161968D01*
X16795470Y00158439D01*
X16809999Y00157378D01*
X16709999Y02337378D02*
Y03595973D01*
X16739997Y03647916D02*
X16730075Y03640746D01*
X16721815Y03631711D01*
X16715561Y03621188D01*
X16711573Y03609613D01*
X16710019Y03597471D01*
X16709999Y03595973D01*
X16739997Y03647916D02*
X17180001Y03901967D01*
X17209999Y03909993D02*
X17197819Y03908748D01*
X17186146Y03905056D01*
X17180001Y03901967D01*
X17209999Y03909993D02*
X19220586D01*
X19244996Y03872071D02*
X19244337Y03881801D01*
X19241233Y03891045D01*
X19235886Y03899201D01*
X19228646Y03905734D01*
X19220586Y03909993D01*
X19244996Y03872071D02*
Y02117515D01*
X19221374Y02080000D02*
X19229850Y02084807D01*
X19236829Y02091608D01*
X19241853Y02099958D01*
X19244595Y02109309D01*
X19244996Y02117515D01*
X19221348Y02080000D02*
X17251375D01*
X17201388Y02129987D02*
X17202636Y02118886D01*
X17206319Y02108339D01*
X17212251Y02098874D01*
X17220137Y02090962D01*
X17229584Y02085000D01*
X17240119Y02081283D01*
X17251216Y02080000D01*
X17251375Y02080000D01*
X17201388Y02129987D02*
Y02187365D01*
X17200140Y02198469D01*
X17196458Y02209019D01*
X17190525Y02218488D01*
X17182638Y02226403D01*
X17173191Y02232369D01*
X17162655Y02236090D01*
X17151555Y02237378D01*
X17151375Y02237378D01*
X16809999D01*
X16709999Y02337378D02*
X16711250Y02321611D01*
X16714971Y02306238D01*
X16721070Y02291644D01*
X16729393Y02278195D01*
X16739733Y02266226D01*
X16751830Y02256037D01*
X16765383Y02247883D01*
X16780052Y02241968D01*
X16795470Y02238439D01*
X16809999Y02237378D01*
X16709999Y04417378D02*
Y05675973D01*
X16739997Y05727916D02*
X16730075Y05720746D01*
X16721815Y05711711D01*
X16715561Y05701188D01*
X16711573Y05689613D01*
X16710019Y05677471D01*
X16709999Y05675973D01*
X16739997Y05727916D02*
X17180001Y05981967D01*
X17209999Y05989993D02*
X17197819Y05988748D01*
X17186146Y05985056D01*
X17180001Y05981967D01*
X17209999Y05989993D02*
X19220586D01*
X19244996Y05952071D02*
X19244337Y05961801D01*
X19241233Y05971045D01*
X19235886Y05979201D01*
X19228646Y05985734D01*
X19220586Y05989993D01*
X19244996Y05952071D02*
Y04197515D01*
X19221374Y04159999D02*
X19229850Y04164807D01*
X19236829Y04171608D01*
X19241853Y04179957D01*
X19244595Y04189308D01*
X19244996Y04197515D01*
X19221348Y04159999D02*
X17251375D01*
X17201388Y04209987D02*
X17202636Y04198886D01*
X17206319Y04188339D01*
X17212251Y04178874D01*
X17220137Y04170962D01*
X17229584Y04164999D01*
X17240119Y04161283D01*
X17251216Y04160000D01*
X17251375Y04159999D01*
X17201388Y04209987D02*
Y04267365D01*
X17200140Y04278469D01*
X17196458Y04289019D01*
X17190525Y04298488D01*
X17182638Y04306403D01*
X17173191Y04312369D01*
X17162655Y04316090D01*
X17151555Y04317378D01*
X17151375Y04317378D01*
X16809999D01*
X16709999Y04417378D02*
X16711250Y04401611D01*
X16714971Y04386238D01*
X16721070Y04371644D01*
X16729393Y04358195D01*
X16739733Y04346226D01*
X16751830Y04336037D01*
X16765383Y04327883D01*
X16780052Y04321968D01*
X16795470Y04318439D01*
X16809999Y04317378D01*
X16709999Y06497378D02*
Y07755973D01*
X16739997Y07807916D02*
X16730075Y07800746D01*
X16721815Y07791711D01*
X16715561Y07781188D01*
X16711573Y07769613D01*
X16710019Y07757470D01*
X16709999Y07755973D01*
X16739997Y07807916D02*
X17180001Y08061967D01*
X17209999Y08069993D02*
X17197819Y08068748D01*
X17186146Y08065056D01*
X17180001Y08061967D01*
X17209999Y08069993D02*
X19220586D01*
X19244996Y08032071D02*
X19244337Y08041801D01*
X19241233Y08051045D01*
X19235886Y08059201D01*
X19228646Y08065734D01*
X19220586Y08069993D01*
X19244996Y08032071D02*
Y06277515D01*
X19221374Y06240000D02*
X19229850Y06244807D01*
X19236829Y06251608D01*
X19241853Y06259958D01*
X19244595Y06269309D01*
X19244996Y06277515D01*
X19221348Y06240000D02*
X17251375D01*
X17201388Y06289987D02*
X17202636Y06278886D01*
X17206319Y06268339D01*
X17212251Y06258874D01*
X17220137Y06250962D01*
X17229584Y06244999D01*
X17240119Y06241284D01*
X17251216Y06240000D01*
X17251375Y06240000D01*
X17201388Y06289987D02*
Y06347365D01*
X17200140Y06358469D01*
X17196458Y06369019D01*
X17190525Y06378488D01*
X17182638Y06386403D01*
X17173191Y06392369D01*
X17162655Y06396090D01*
X17151555Y06397378D01*
X17151375Y06397378D01*
X16809999D01*
X16709999Y06497378D02*
X16711250Y06481611D01*
X16714971Y06466238D01*
X16721070Y06451644D01*
X16729393Y06438195D01*
X16739733Y06426226D01*
X16751830Y06416037D01*
X16765383Y06407883D01*
X16780052Y06401968D01*
X16795470Y06398439D01*
X16809999Y06397378D01*
X16709999Y08577378D02*
Y09835973D01*
X16739997Y09887916D02*
X16730075Y09880746D01*
X16721815Y09871711D01*
X16715561Y09861187D01*
X16711573Y09849613D01*
X16710019Y09837471D01*
X16709999Y09835973D01*
X16739997Y09887916D02*
X17180001Y10141967D01*
X17209999Y10149993D02*
X17197819Y10148748D01*
X17186146Y10145056D01*
X17180001Y10141967D01*
X17209999Y10149993D02*
X19220586D01*
X19244996Y10112071D02*
X19244337Y10121801D01*
X19241233Y10131045D01*
X19235886Y10139201D01*
X19228646Y10145734D01*
X19220586Y10149993D01*
X19244996Y10112071D02*
Y08357515D01*
X19221374Y08319999D02*
X19229850Y08324807D01*
X19236829Y08331608D01*
X19241853Y08339958D01*
X19244595Y08349308D01*
X19244996Y08357515D01*
X19221348Y08319999D02*
X17251375D01*
X17201388Y08369987D02*
X17202636Y08358886D01*
X17206319Y08348339D01*
X17212251Y08338874D01*
X17220137Y08330962D01*
X17229584Y08325000D01*
X17240119Y08321284D01*
X17251216Y08320000D01*
X17251375Y08319999D01*
X17201388Y08369987D02*
Y08427365D01*
X17200140Y08438469D01*
X17196458Y08449019D01*
X17190525Y08458488D01*
X17182638Y08466403D01*
X17173191Y08472369D01*
X17162655Y08476090D01*
X17151555Y08477378D01*
X17151375Y08477378D01*
X16809999D01*
X16709999Y08577378D02*
X16711250Y08561611D01*
X16714971Y08546238D01*
X16721070Y08531645D01*
X16729393Y08518195D01*
X16739733Y08506226D01*
X16751830Y08496037D01*
X16765383Y08487883D01*
X16780052Y08481968D01*
X16795470Y08478439D01*
X16809999Y08477378D01*
X16709999Y10657378D02*
Y11915973D01*
X16739997Y11967916D02*
X16730075Y11960746D01*
X16721815Y11951711D01*
X16715561Y11941187D01*
X16711573Y11929613D01*
X16710019Y11917470D01*
X16709999Y11915973D01*
X16739997Y11967916D02*
X17180001Y12221967D01*
X17209999Y12229993D02*
X17197819Y12228748D01*
X17186146Y12225056D01*
X17180001Y12221967D01*
X17209999Y12229993D02*
X19220586D01*
X19244996Y12192071D02*
X19244337Y12201801D01*
X19241233Y12211045D01*
X19235886Y12219201D01*
X19228646Y12225734D01*
X19220586Y12229993D01*
X19244996Y12192071D02*
Y10437515D01*
X19221374Y10399999D02*
X19229850Y10404807D01*
X19236829Y10411608D01*
X19241853Y10419958D01*
X19244595Y10429309D01*
X19244996Y10437515D01*
X19221348Y10399999D02*
X17251375D01*
X17201388Y10449987D02*
X17202636Y10438886D01*
X17206319Y10428339D01*
X17212251Y10418874D01*
X17220137Y10410962D01*
X17229584Y10405000D01*
X17240119Y10401284D01*
X17251216Y10400000D01*
X17251375Y10399999D01*
X17201388Y10449987D02*
Y10507365D01*
X17200140Y10518469D01*
X17196458Y10529019D01*
X17190525Y10538488D01*
X17182638Y10546403D01*
X17173191Y10552369D01*
X17162655Y10556090D01*
X17151555Y10557378D01*
X17151375Y10557378D01*
X16809999D01*
X16709999Y10657378D02*
X16711250Y10641611D01*
X16714971Y10626238D01*
X16721070Y10611645D01*
X16729393Y10598195D01*
X16739733Y10586226D01*
X16751830Y10576037D01*
X16765383Y10567883D01*
X16780052Y10561968D01*
X16795470Y10558439D01*
X16809999Y10557378D01*
X18176240Y-00000407D02*
Y-00251867D01*
X17777460Y-00000407D02*
Y-00251867D01*
X19245580Y01114653D02*
X19494499D01*
X19245580Y00713333D02*
X19494499D01*
X19245580Y01114653D02*
X19494499D01*
X19994880Y12878993D02*
Y-00652247D01*
X-00649301Y12978993D02*
X19894880D01*
X-00749300Y-00652247D02*
Y12878993D01*
X-00649301Y-00752247D02*
X19894880D01*
X-00251461Y-00251867D02*
X19494499D01*
X-00251461D02*
Y12478613D01*
X19494499D01*
Y-00251867D01*
X15391240Y-00000407D02*
Y-00251867D01*
X14992460Y-00000407D02*
Y-00251867D01*
X12606240Y-00000407D02*
Y-00251867D01*
X12207459Y-00000407D02*
Y-00251867D01*
X09821240Y-00000407D02*
Y-00251867D01*
X09422460Y-00000407D02*
Y-00251867D01*
X07036239Y-00000407D02*
Y-00251867D01*
X06637460Y-00000407D02*
Y-00251867D01*
X04251240Y-00000407D02*
Y-00251867D01*
X03852460Y-00000407D02*
Y-00251867D01*
X01466239Y-00000407D02*
Y-00251867D01*
X01067460Y-00000407D02*
Y-00251867D01*
X18176240Y02079593D02*
Y01828133D01*
X17777460Y02079593D02*
Y01828133D01*
X15391240Y02079593D02*
Y01828133D01*
X14992460Y02079593D02*
Y01828133D01*
X12606240Y02079593D02*
Y01828133D01*
X12207459Y02079593D02*
Y01828133D01*
X09821240Y02079593D02*
Y01828133D01*
X09422460Y02079593D02*
Y01828133D01*
X07036239Y02079593D02*
Y01828133D01*
X06637460Y02079593D02*
Y01828133D01*
X04251240Y02079593D02*
Y01828133D01*
X03852460Y02079593D02*
Y01828133D01*
X01466239Y02079593D02*
Y01829993D01*
X01067460Y02079593D02*
Y01829993D01*
X18176240Y04159593D02*
Y03908133D01*
X17777460Y04159593D02*
Y03908133D01*
X15391240Y04159593D02*
Y03908133D01*
X14992460Y04159593D02*
Y03908133D01*
X12606240Y04159593D02*
Y03908133D01*
X12207459Y04159593D02*
Y03908133D01*
X09821240Y04159593D02*
Y03908133D01*
X09422460Y04159593D02*
Y03908133D01*
X07036239Y04159593D02*
Y03908133D01*
X06637460Y04159593D02*
Y03908133D01*
X04251240Y04159593D02*
Y03908133D01*
X03852460Y04159593D02*
Y03908133D01*
X01466239Y04159593D02*
Y03908133D01*
X01067460Y04159593D02*
Y03908133D01*
X18176240Y06239593D02*
Y05988133D01*
X17777460Y06239593D02*
Y05988133D01*
X15391240Y06239593D02*
Y05988133D01*
X14992460Y06239593D02*
Y05988133D01*
X12606240Y06239593D02*
Y05988133D01*
X12207459Y06239593D02*
Y05988133D01*
X09821240Y06239593D02*
Y05988133D01*
X09422460Y06239593D02*
Y05988133D01*
X07036239Y06239593D02*
Y05988133D01*
X06637460Y06239593D02*
Y05988133D01*
X04251240Y06239593D02*
Y05988133D01*
X03852460Y06239593D02*
Y05988133D01*
X01466239Y06239593D02*
Y05988133D01*
X01067460Y06239593D02*
Y05988133D01*
X18176240Y08319593D02*
Y08068133D01*
X17777460Y08319593D02*
Y08068133D01*
X15391240Y08319593D02*
Y08068133D01*
X14992460Y08319593D02*
Y08068133D01*
X12606240Y08319593D02*
Y08068133D01*
X12207459Y08319593D02*
Y08068133D01*
X09821240Y08319593D02*
Y08068133D01*
X09422460Y08319593D02*
Y08068133D01*
X07036239Y08319593D02*
Y08068133D01*
X06637460Y08319593D02*
Y08068133D01*
X04251240Y08319593D02*
Y08068133D01*
X03852460Y08319593D02*
Y08068133D01*
X01466239Y08319593D02*
Y08068133D01*
X01067460Y08319593D02*
Y08068133D01*
X18176240Y10399593D02*
Y10148133D01*
X17777460Y10399593D02*
Y10148133D01*
X15391240Y10399593D02*
Y10148133D01*
X14992460Y10399593D02*
Y10148133D01*
X12606240Y10399593D02*
Y10148133D01*
X12207459Y10399593D02*
Y10148133D01*
X09821240Y10399593D02*
Y10148133D01*
X09422460Y10399593D02*
Y10148133D01*
X07036239Y10399593D02*
Y10148133D01*
X06637460Y10399593D02*
Y10148133D01*
X04251240Y10399593D02*
Y10148133D01*
X03852460Y10399593D02*
Y10148133D01*
X01466239Y10399593D02*
Y10148133D01*
X01067460Y10399593D02*
Y10148133D01*
X19245580Y03194653D02*
X19494499D01*
X19245580Y02793333D02*
X19494499D01*
X19245580Y03194653D02*
X19494499D01*
X19245580Y05274653D02*
X19494499D01*
X19245580Y04873333D02*
X19494499D01*
X19245580Y05274653D02*
X19494499D01*
X19245580Y07354653D02*
X19494499D01*
X19245580Y06953333D02*
X19494499D01*
X19245580Y07354653D02*
X19494499D01*
X19245580Y09434653D02*
X19494499D01*
X19245580Y09033333D02*
X19494499D01*
X19245580Y09434653D02*
X19494499D01*
X19245580Y11514653D02*
X19494499D01*
X19245580Y11113333D02*
X19494499D01*
X19245580Y11514653D02*
X19494499D01*
X16460580Y01114653D02*
X16709500D01*
X16460580Y00713333D02*
X16709500D01*
X16460580Y01114653D02*
X16709500D01*
X16460580Y03194653D02*
X16709500D01*
X16460580Y02793333D02*
X16709500D01*
X16460580Y03194653D02*
X16709500D01*
X16460580Y05274653D02*
X16709500D01*
X16460580Y04873333D02*
X16709500D01*
X16460580Y05274653D02*
X16709500D01*
X16460580Y07354653D02*
X16709500D01*
X16460580Y06953333D02*
X16709500D01*
X16460580Y07354653D02*
X16709500D01*
X16460580Y09434653D02*
X16709500D01*
X16460580Y09033333D02*
X16709500D01*
X16460580Y09434653D02*
X16709500D01*
X16460580Y11514653D02*
X16709500D01*
X16460580Y11113333D02*
X16709500D01*
X16460580Y11514653D02*
X16709500D01*
X13675580Y01114653D02*
X13924499D01*
X13675580Y00713333D02*
X13924499D01*
X13675580Y01114653D02*
X13924499D01*
X13675580Y03194653D02*
X13924499D01*
X13675580Y02793333D02*
X13924499D01*
X13675580Y03194653D02*
X13924499D01*
X13675580Y05274653D02*
X13924499D01*
X13675580Y04873333D02*
X13924499D01*
X13675580Y05274653D02*
X13924499D01*
X13675580Y07354653D02*
X13924499D01*
X13675580Y06953333D02*
X13924499D01*
X13675580Y07354653D02*
X13924499D01*
X13675580Y09434653D02*
X13924499D01*
X13675580Y09033333D02*
X13924499D01*
X13675580Y09434653D02*
X13924499D01*
X13675580Y11514653D02*
X13924499D01*
X13675580Y11113333D02*
X13924499D01*
X13675580Y11514653D02*
X13924499D01*
X10890580Y01114653D02*
X11139500D01*
X10890580Y00713333D02*
X11139500D01*
X10890580Y01114653D02*
X11139500D01*
X10890580Y03194653D02*
X11139500D01*
X10890580Y02793333D02*
X11139500D01*
X10890580Y03194653D02*
X11139500D01*
X10890580Y05274653D02*
X11139500D01*
X10890580Y04873333D02*
X11139500D01*
X10890580Y05274653D02*
X11139500D01*
X10890580Y07354653D02*
X11139500D01*
X10890580Y06953333D02*
X11139500D01*
X10890580Y07354653D02*
X11139500D01*
X10890580Y09434653D02*
X11139500D01*
X10890580Y09033333D02*
X11139500D01*
X10890580Y09434653D02*
X11139500D01*
X10890580Y11514653D02*
X11139500D01*
X10890580Y11113333D02*
X11139500D01*
X10890580Y11514653D02*
X11139500D01*
X08105580Y01114653D02*
X08354500D01*
X08105580Y00713333D02*
X08354500D01*
X08105580Y01114653D02*
X08354500D01*
X08105580Y03194653D02*
X08354500D01*
X08105580Y02793333D02*
X08354500D01*
X08105580Y03194653D02*
X08354500D01*
X08105580Y05274653D02*
X08354500D01*
X08105580Y04873333D02*
X08354500D01*
X08105580Y05274653D02*
X08354500D01*
X08105580Y07354653D02*
X08354500D01*
X08105580Y06953333D02*
X08354500D01*
X08105580Y07354653D02*
X08354500D01*
X08105580Y09434653D02*
X08354500D01*
X08105580Y09033333D02*
X08354500D01*
X08105580Y09434653D02*
X08354500D01*
X08105580Y11514653D02*
X08354500D01*
X08105580Y11113333D02*
X08354500D01*
X08105580Y11514653D02*
X08354500D01*
X05320579Y01114653D02*
X05569500D01*
X05320579Y00713333D02*
X05569500D01*
X05320579Y01114653D02*
X05569500D01*
X05320579Y03194653D02*
X05569500D01*
X05320579Y02793333D02*
X05569500D01*
X05320579Y03194653D02*
X05569500D01*
X05320579Y05274653D02*
X05569500D01*
X05320579Y04873333D02*
X05569500D01*
X05320579Y05274653D02*
X05569500D01*
X05320579Y07354653D02*
X05569500D01*
X05320579Y06953333D02*
X05569500D01*
X05320579Y07354653D02*
X05569500D01*
X05320579Y09434653D02*
X05569500D01*
X05320579Y09033333D02*
X05569500D01*
X05320579Y09434653D02*
X05569500D01*
X05320579Y11514653D02*
X05569500D01*
X05320579Y11113333D02*
X05569500D01*
X05320579Y11514653D02*
X05569500D01*
X02535580Y01114653D02*
X02784500D01*
X02534996Y00713333D02*
X02784500D01*
X02535580Y01114653D02*
X02784500D01*
X02535580Y03194653D02*
X02784500D01*
X02535580Y02793333D02*
X02784500D01*
X02535580Y03194653D02*
X02784500D01*
X02535580Y05274653D02*
X02784500D01*
X02535580Y04873333D02*
X02784500D01*
X02535580Y05274653D02*
X02784500D01*
X02535580Y07354653D02*
X02784500D01*
X02535580Y06953333D02*
X02784500D01*
X02535580Y07354653D02*
X02784500D01*
X02535580Y09434653D02*
X02784500D01*
X02535580Y09033333D02*
X02784500D01*
X02535580Y09434653D02*
X02784500D01*
X02535580Y11514653D02*
X02784500D01*
X02535580Y11113333D02*
X02784500D01*
X02535580Y11514653D02*
X02784500D01*
X18176240Y12479593D02*
Y12228133D01*
X17777460Y12479593D02*
Y12228133D01*
X15391240Y12479593D02*
Y12228133D01*
X14992460Y12479593D02*
Y12228133D01*
X12606240Y12479593D02*
Y12228133D01*
X12207459Y12479593D02*
Y12228133D01*
X09821240Y12479593D02*
Y12228133D01*
X09422460Y12479593D02*
Y12228133D01*
X07036239Y12479593D02*
Y12228133D01*
X06637460Y12479593D02*
Y12228133D01*
X04251240Y12479593D02*
Y12228133D01*
X03852460Y12479593D02*
Y12228133D01*
X01466239Y12479593D02*
Y12228133D01*
X01067460Y12479593D02*
Y12228133D01*
X19894880Y-00752247D02*
X19910647Y-00750996D01*
X19926019Y-00747275D01*
X19940613Y-00741176D01*
X19954062Y-00732853D01*
X19966031Y-00722514D01*
X19976220Y-00710416D01*
X19984375Y-00696864D01*
X19990290Y-00682195D01*
X19993818Y-00666776D01*
X19994880Y-00652247D01*
X19894880Y12978993D02*
X19910647Y12977743D01*
X19926019Y12974021D01*
X19940613Y12967923D01*
X19954062Y12959600D01*
X19966031Y12949260D01*
X19976220Y12937163D01*
X19984375Y12923610D01*
X19990290Y12908941D01*
X19993818Y12893523D01*
X19994880Y12878993D01*
X-00649301Y12978993D02*
X-00665067Y12977743D01*
X-00680440Y12974021D01*
X-00695034Y12967923D01*
X-00708483Y12959600D01*
X-00720452Y12949260D01*
X-00730641Y12937163D01*
X-00738796Y12923610D01*
X-00744711Y12908941D01*
X-00748239Y12893523D01*
X-00749300Y12878993D01*
X-00249421Y01114653D02*
X-00000501D01*
X-00249421Y00713333D02*
X-00000501D01*
X-00249421Y01114653D02*
X-00000501D01*
X-00249421Y03194653D02*
X-00000501D01*
X-00249421Y02793333D02*
X-00000501D01*
X-00249421Y03194653D02*
X-00000501D01*
X-00249421Y05274653D02*
X-00000501D01*
X-00249421Y04873333D02*
X-00000501D01*
X-00249421Y05274653D02*
X-00000501D01*
X-00249421Y07354653D02*
X-00000501D01*
X-00249421Y06953333D02*
X-00000501D01*
X-00249421Y07354653D02*
X-00000501D01*
X-00249421Y09434653D02*
X-00000501D01*
X-00249421Y09033333D02*
X-00000501D01*
X-00249421Y09434653D02*
X-00000501D01*
X-00249421Y11514653D02*
X-00000501D01*
X-00249421Y11113333D02*
X-00000501D01*
X-00249421Y11514653D02*
X-00000501D01*
X-00749300Y-00652247D02*
X-00748050Y-00668014D01*
X-00744329Y-00683386D01*
X-00738230Y-00697980D01*
X-00729907Y-00711429D01*
X-00719567Y-00723398D01*
X-00707470Y-00733588D01*
X-00693917Y-00741742D01*
X-00679248Y-00747657D01*
X-00663830Y-00751186D01*
X-00649301Y-00752247D01*
G54D11*
X-00499301Y00247753D03*
X19744500Y00248133D03*
Y11978613D03*
M02*
